<?xml version="1.0" encoding="UTF-8"?>
<!DOCTYPE svg PUBLIC "-//W3C//DTD SVG 1.1//EN" "http://www.w3.org/Graphics/SVG/1.1/DTD/svg11.dtd">
<svg xmlns="http://www.w3.org/2000/svg" version="1.1" width="512px" height="512px" style="shape-rendering:geometricPrecision; text-rendering:geometricPrecision; image-rendering:optimizeQuality; fill-rule:evenodd; clip-rule:evenodd" xmlns:xlink="http://www.w3.org/1999/xlink">
<g><path style="opacity:0.96" fill="#ffc344" d="M 250.5,14.5 C 253.649,14.2114 256.649,14.7114 259.5,16C 266.147,31.6042 271.813,47.6042 276.5,64C 276.68,68.3095 274.68,70.9762 270.5,72C 265.089,72.9696 261.589,70.8029 260,65.5C 255.264,51.1241 250.43,36.7908 245.5,22.5C 245.71,18.8048 247.377,16.1381 250.5,14.5 Z"/></g>
<g><path style="opacity:0.961" fill="#ffc343" d="M 401.5,23.5 C 409.658,22.8229 413.158,26.4895 412,34.5C 405.605,48.2893 398.939,61.9559 392,75.5C 387.62,80.3433 382.954,80.6767 378,76.5C 376.75,73.9234 376.416,71.2567 377,68.5C 383.474,54.7466 390.141,41.08 397,27.5C 398.397,25.9297 399.897,24.5964 401.5,23.5 Z"/></g>
<g><path style="opacity:0.963" fill="#ffc344" d="M 323.5,28.5 C 330.66,26.9016 334.994,29.5682 336.5,36.5C 335.881,44.5219 335.048,52.5219 334,60.5C 329.778,65.1858 325.278,65.5192 320.5,61.5C 319.052,59.0442 318.386,56.3775 318.5,53.5C 319.111,46.8421 319.611,40.1754 320,33.5C 320.997,31.6769 322.164,30.0103 323.5,28.5 Z"/></g>
<g><path style="opacity:0.949" fill="#ffc343" d="M 199.5,71.5 C 202.649,71.2114 205.649,71.7114 208.5,73C 212.652,78.1189 217.152,82.9523 222,87.5C 225.433,92.1333 225.267,96.6333 221.5,101C 218.167,103 214.833,103 211.5,101C 207.348,95.8811 202.848,91.0477 198,86.5C 194.311,81.0206 194.811,76.0206 199.5,71.5 Z"/></g>
<g><path style="opacity:0.953" fill="#ffc344" d="M 443.5,85.5 C 453.36,85.5431 456.527,90.2098 453,99.5C 447.5,104.333 442,109.167 436.5,114C 429.556,116.571 425.223,114.238 423.5,107C 423.741,105.016 424.408,103.183 425.5,101.5C 431.248,95.7443 437.248,90.411 443.5,85.5 Z"/></g>
<g><path style="opacity:0.998" fill="#fee077" d="M 367.5,100.5 C 406.06,139.12 415.56,184.12 396,235.5C 388.548,251.894 378.048,266.061 364.5,278C 364.728,278.399 365.062,278.565 365.5,278.5C 363.956,279.914 362.289,280.247 360.5,279.5C 350.702,247.586 329.036,232.419 295.5,234C 279.62,236.939 266.953,244.939 257.5,258C 256.906,258.464 256.239,258.631 255.5,258.5C 251.115,253.97 245.782,250.97 239.5,249.5C 237.565,248.85 235.565,248.517 233.5,248.5C 235.188,221.518 223.855,202.518 199.5,191.5C 208.334,142.499 236.334,109.999 283.5,94C 305.078,88.4081 326.744,88.0748 348.5,93C 355.21,94.8417 361.544,97.3417 367.5,100.5 Z"/></g>
<g><path style="opacity:1" fill="#fed15b" d="M 367.5,100.5 C 404.548,117.527 427.048,146.193 435,186.5C 441.056,222.945 432.723,255.611 410,284.5C 408.296,286.373 406.463,288.04 404.5,289.5C 393.294,279.78 380.294,276.113 365.5,278.5C 365.062,278.565 364.728,278.399 364.5,278C 378.048,266.061 388.548,251.894 396,235.5C 415.56,184.12 406.06,139.12 367.5,100.5 Z"/></g>
<g><path style="opacity:0.963" fill="#ffc343" d="M 139.5,113.5 C 143.325,114.074 146.991,115.241 150.5,117C 162.5,123 174.5,129 186.5,135C 191.307,144.542 188.307,149.208 177.5,149C 162.733,141.868 148.233,134.368 134,126.5C 131.955,120.236 133.789,115.903 139.5,113.5 Z"/></g>
<g><path style="opacity:0.957" fill="#ffc344" d="M 511.5,140.5 C 511.5,143.167 511.5,145.833 511.5,148.5C 510.038,149.458 508.705,150.624 507.5,152C 493.759,156.469 480.092,161.136 466.5,166C 456.526,168.027 452.693,164.193 455,154.5C 456.214,152.951 457.714,151.785 459.5,151C 473.092,146.136 486.759,141.469 500.5,137C 505.128,135.663 508.795,136.83 511.5,140.5 Z"/></g>
<g><path style="opacity:0.994" fill="#03d0fa" d="M 199.5,191.5 C 223.855,202.518 235.188,221.518 233.5,248.5C 235.565,248.517 237.565,248.85 239.5,249.5C 236.374,276.234 221.374,290.567 194.5,292.5C 163.469,272.674 132.469,272.674 101.5,292.5C 68.5,292.5 35.5,292.5 2.5,292.5C 8.55693,280.962 18.2236,275.296 31.5,275.5C 30.0916,253.454 39.7583,238.954 60.5,232C 73.2223,229.091 84.7223,231.591 95,239.5C 103.593,225.689 115.76,221.022 131.5,225.5C 144.535,194.982 167.202,183.649 199.5,191.5 Z"/></g>
<g><path style="opacity:0.957" fill="#ffc344" d="M 465.5,209.5 C 474.879,209.224 484.212,209.724 493.5,211C 500.321,216.394 499.987,221.394 492.5,226C 484.156,226.282 475.823,225.948 467.5,225C 460.535,220.615 459.868,215.449 465.5,209.5 Z"/></g>
<g><path style="opacity:0.999" fill="#99e5fb" d="M 365.5,278.5 C 380.294,276.113 393.294,279.78 404.5,289.5C 410.392,295.983 413.892,303.65 415,312.5C 429.928,301.373 446.428,298.04 464.5,302.5C 480.509,326.219 480.343,349.886 464,373.5C 455.62,383.439 445.12,389.939 432.5,393C 412.87,394.41 393.203,394.91 373.5,394.5C 373.81,397.713 373.477,400.713 372.5,403.5C 373.528,377.376 362.528,358.209 339.5,346C 317.546,336.994 297.046,339.494 278,353.5C 264.419,332.802 245.585,325.802 221.5,332.5C 219.664,325.827 216.998,319.494 213.5,313.5C 218.148,310.172 223.148,307.339 228.5,305C 235.092,303.671 241.759,303.171 248.5,303.5C 245.007,287.771 247.674,273.271 256.5,260C 255.944,259.617 255.611,259.117 255.5,258.5C 256.239,258.631 256.906,258.464 257.5,258C 266.953,244.939 279.62,236.939 295.5,234C 329.036,232.419 350.702,247.586 360.5,279.5C 362.289,280.247 363.956,279.914 365.5,278.5 Z"/></g>
<g><path style="opacity:1" fill="#0ac0f9" d="M 239.5,249.5 C 245.782,250.97 251.115,253.97 255.5,258.5C 255.611,259.117 255.944,259.617 256.5,260C 247.674,273.271 245.007,287.771 248.5,303.5C 241.759,303.171 235.092,303.671 228.5,305C 223.148,307.339 218.148,310.172 213.5,313.5C 210.687,309.902 207.853,306.235 205,302.5C 201.604,298.935 198.104,295.602 194.5,292.5C 221.374,290.567 236.374,276.234 239.5,249.5 Z"/></g>
<g><path style="opacity:0.959" fill="#ffc344" d="M 454.5,253.5 C 470.868,258.905 486.868,265.405 502.5,273C 506.926,278.441 506.259,283.108 500.5,287C 498.167,287.667 495.833,287.667 493.5,287C 479.916,280.806 466.25,274.806 452.5,269C 448.338,265.522 447.504,261.356 450,256.5C 451.409,255.219 452.909,254.219 454.5,253.5 Z"/></g>
<g><path style="opacity:0.999" fill="#c7eefd" d="M 194.5,292.5 C 198.104,295.602 201.604,298.935 205,302.5C 207.853,306.235 210.687,309.902 213.5,313.5C 216.998,319.494 219.664,325.827 221.5,332.5C 245.585,325.802 264.419,332.802 278,353.5C 297.046,339.494 317.546,336.994 339.5,346C 362.528,358.209 373.528,377.376 372.5,403.5C 372.5,404.833 372.5,406.167 372.5,407.5C 376.566,407.307 380.566,407.64 384.5,408.5C 393.195,426.109 392.028,443.109 381,459.5C 374.08,467.879 365.247,473.045 354.5,475C 249.833,475.667 145.167,475.667 40.5,475C 37.5219,474.304 34.5219,473.804 31.5,473.5C 12.4984,448.467 10.665,422.133 26,394.5C 36.9507,378.518 51.9507,368.518 71,364.5C 70.2071,354.841 70.7071,345.174 72.5,335.5C 75.4839,327.195 79.3172,319.195 84,311.5C 88.9915,304.344 94.8248,298.01 101.5,292.5C 132.469,272.674 163.469,272.674 194.5,292.5 Z"/></g>
<g><path style="opacity:1" fill="#02c0fa" d="M 2.5,292.5 C 35.5,292.5 68.5,292.5 101.5,292.5C 94.8248,298.01 88.9915,304.344 84,311.5C 79.3172,319.195 75.4839,327.195 72.5,335.5C 55.4967,335.667 38.4967,335.5 21.5,335C 10.3177,331.65 2.98437,324.483 -0.5,313.5C -0.5,308.167 -0.5,302.833 -0.5,297.5C 0.312714,295.739 1.31271,294.072 2.5,292.5 Z"/></g>
<g><path style="opacity:1" fill="#63dbfb" d="M 464.5,302.5 C 495.685,312.835 509.851,334.502 507,367.5C 502.405,390.096 489.239,405.262 467.5,413C 464.529,413.794 461.529,414.461 458.5,415C 440.17,415.5 421.836,415.667 403.5,415.5C 397.71,411.791 391.377,409.458 384.5,408.5C 380.566,407.64 376.566,407.307 372.5,407.5C 372.5,406.167 372.5,404.833 372.5,403.5C 373.477,400.713 373.81,397.713 373.5,394.5C 393.203,394.91 412.87,394.41 432.5,393C 445.12,389.939 455.62,383.439 464,373.5C 480.343,349.886 480.509,326.219 464.5,302.5 Z"/></g>
<g><path style="opacity:1" fill="#9ae6fc" d="M 384.5,408.5 C 391.377,409.458 397.71,411.791 403.5,415.5C 420.958,430.323 425.791,448.656 418,470.5C 411.39,484.388 400.557,492.888 385.5,496C 280.833,496.667 176.167,496.667 71.5,496C 55.2855,493.398 41.9521,485.898 31.5,473.5C 34.5219,473.804 37.5219,474.304 40.5,475C 145.167,475.667 249.833,475.667 354.5,475C 365.247,473.045 374.08,467.879 381,459.5C 392.028,443.109 393.195,426.109 384.5,408.5 Z"/></g>
</svg>
