<?xml version="1.0" encoding="UTF-8"?>
<!DOCTYPE svg PUBLIC "-//W3C//DTD SVG 1.1//EN" "http://www.w3.org/Graphics/SVG/1.1/DTD/svg11.dtd">
<svg xmlns="http://www.w3.org/2000/svg" version="1.1" width="512px" height="512px" style="shape-rendering:geometricPrecision; text-rendering:geometricPrecision; image-rendering:optimizeQuality; fill-rule:evenodd; clip-rule:evenodd" xmlns:xlink="http://www.w3.org/1999/xlink">
<g><path style="opacity:0.941" fill="#431c02" d="M 121.5,68.5 C 125.603,67.7691 129.103,68.7691 132,71.5C 132.499,77.4908 132.666,83.4908 132.5,89.5C 138.509,89.3338 144.509,89.5005 150.5,90C 153.394,92.9087 154.227,96.4087 153,100.5C 151.786,102.049 150.286,103.215 148.5,104C 143.177,104.499 137.844,104.666 132.5,104.5C 132.666,110.176 132.499,115.843 132,121.5C 127.997,126.42 123.663,126.753 119,122.5C 117.639,116.593 117.139,110.593 117.5,104.5C 111.407,104.861 105.407,104.361 99.5,103C 95.2467,98.3366 95.58,94.0032 100.5,90C 106.157,89.5006 111.824,89.3339 117.5,89.5C 117.334,84.1563 117.501,78.8229 118,73.5C 118.997,71.6769 120.164,70.0103 121.5,68.5 Z"/></g>
<g><path style="opacity:0.973" fill="#441d03" d="M 412.5,68.5 C 436.154,67.319 445.654,78.319 441,101.5C 433.653,113.839 423.153,117.672 409.5,113C 397.152,105.624 393.319,95.1241 398,81.5C 401.162,75.1641 405.996,70.8308 412.5,68.5 Z"/></g>
<g><path style="opacity:1" fill="#50d8b6" d="M 416.5,82.5 C 424.986,82.1514 428.82,86.1514 428,94.5C 425.367,99.7315 421.201,101.565 415.5,100C 408.642,93.6759 408.976,87.8426 416.5,82.5 Z"/></g>
<g><path style="opacity:0.988" fill="#441d03" d="M 120.5,165.5 C 119.442,168.397 117.442,170.564 114.5,172C 105.5,172.333 96.5,172.667 87.5,173C 80.6551,179.086 80.9884,184.753 88.5,190C 147.5,190.667 206.5,190.667 265.5,190C 285.534,187.301 298.034,176.134 303,156.5C 305.637,127.409 292.637,110.409 264,105.5C 254.535,104.963 250.868,109.297 253,118.5C 254.543,120.378 256.376,121.878 258.5,123C 279.214,125.032 287.714,136.199 284,156.5C 280.453,165.381 273.953,170.547 264.5,172C 243.833,172.667 223.167,172.667 202.5,172C 200.266,170.362 198.933,168.195 198.5,165.5C 198.081,162.675 199.081,160.509 201.5,159C 221.167,158.667 240.833,158.333 260.5,158C 270.357,156.088 273.19,150.588 269,141.5C 265.152,138.198 260.652,136.698 255.5,137C 240.674,131.518 235.174,121.018 239,105.5C 243.533,95.4879 251.367,90.4879 262.5,90.5C 296.634,94.3006 315.301,113.301 318.5,147.5C 316.437,177.724 300.771,196.557 271.5,204C 209.167,204.667 146.833,204.667 84.5,204C 71.0828,198.671 65.9161,188.838 69,174.5C 74.8985,160.632 85.3985,155.299 100.5,158.5C 105.833,158.667 111.167,158.833 116.5,159C 118.719,160.601 120.052,162.767 120.5,165.5 Z"/></g>
<g><path style="opacity:1" fill="#50dbb9" d="M 120.5,165.5 C 127.5,165.5 134.5,165.5 141.5,165.5C 142.298,168.231 143.965,170.397 146.5,172C 155.576,172.913 164.576,172.58 173.5,171C 174.869,169.281 175.869,167.448 176.5,165.5C 183.833,165.5 191.167,165.5 198.5,165.5C 198.933,168.195 200.266,170.362 202.5,172C 223.167,172.667 243.833,172.667 264.5,172C 273.953,170.547 280.453,165.381 284,156.5C 287.714,136.199 279.214,125.032 258.5,123C 256.376,121.878 254.543,120.378 253,118.5C 250.868,109.297 254.535,104.963 264,105.5C 292.637,110.409 305.637,127.409 303,156.5C 298.034,176.134 285.534,187.301 265.5,190C 206.5,190.667 147.5,190.667 88.5,190C 80.9884,184.753 80.6551,179.086 87.5,173C 96.5,172.667 105.5,172.333 114.5,172C 117.442,170.564 119.442,168.397 120.5,165.5 Z"/></g>
<g><path style="opacity:0.983" fill="#441e05" d="M 435.5,193.5 C 432.901,193.451 430.734,192.451 429,190.5C 421.508,156.87 400.674,140.036 366.5,140C 361.388,143.411 360.222,147.911 363,153.5C 364.214,155.049 365.714,156.215 367.5,157C 389.796,157.305 403.963,168.138 410,189.5C 411.841,215.648 400.007,231.481 374.5,237C 278.833,237.333 183.167,237.667 87.5,238C 82.9324,240.587 81.4324,244.421 83,249.5C 84.1667,252 86,253.833 88.5,255C 185.346,255.825 282.179,255.658 379,254.5C 383.428,254.451 386.262,256.451 387.5,260.5C 387.886,265.558 385.552,268.391 380.5,269C 282.167,269.667 183.833,269.667 85.5,269C 71.8513,263.88 66.3513,254.047 69,239.5C 72.0152,230.486 78.1819,224.986 87.5,223C 184.877,222.991 282.21,222.324 379.5,221C 393.476,213.873 398.31,202.707 394,187.5C 391.101,180.268 385.934,175.435 378.5,173C 372.813,172.065 367.146,171.065 361.5,170C 346.909,161.657 343.409,149.823 351,134.5C 360.279,124.721 371.446,121.888 384.5,126C 416.781,133.712 436.114,153.879 442.5,186.5C 441.777,190.557 439.444,192.89 435.5,193.5 Z"/></g>
<g><path style="opacity:0.998" fill="#50d9b7" d="M 435.5,193.5 C 435.955,202.679 434.955,211.679 432.5,220.5C 425.358,219.093 420.858,222.093 419,229.5C 416,233.167 413,236.833 410,240.5C 409.288,243.438 409.788,246.104 411.5,248.5C 404.341,254.079 396.341,258.079 387.5,260.5C 386.262,256.451 383.428,254.451 379,254.5C 282.179,255.658 185.346,255.825 88.5,255C 86,253.833 84.1667,252 83,249.5C 81.4324,244.421 82.9324,240.587 87.5,238C 183.167,237.667 278.833,237.333 374.5,237C 400.007,231.481 411.841,215.648 410,189.5C 403.963,168.138 389.796,157.305 367.5,157C 365.714,156.215 364.214,155.049 363,153.5C 360.222,147.911 361.388,143.411 366.5,140C 400.674,140.036 421.508,156.87 429,190.5C 430.734,192.451 432.901,193.451 435.5,193.5 Z"/></g>
<g><path style="opacity:0.987" fill="#441d04" d="M 176.5,165.5 C 175.869,167.448 174.869,169.281 173.5,171C 164.576,172.58 155.576,172.913 146.5,172C 143.965,170.397 142.298,168.231 141.5,165.5C 141.948,162.767 143.281,160.601 145.5,159C 154.833,158.333 164.167,158.333 173.5,159C 175.451,160.734 176.451,162.901 176.5,165.5 Z"/></g>
<g><path style="opacity:0.968" fill="#441f05" d="M 432.5,220.5 C 433.458,220.953 434.292,221.619 435,222.5C 435.667,225.167 435.667,227.833 435,230.5C 431.294,238.201 426.127,244.701 419.5,250C 416.462,250.885 413.795,250.385 411.5,248.5C 409.788,246.104 409.288,243.438 410,240.5C 413,236.833 416,233.167 419,229.5C 420.858,222.093 425.358,219.093 432.5,220.5 Z"/></g>
<g><path style="opacity:0.943" fill="#431c02" d="M 412.5,286.5 C 416.025,286.346 418.859,287.679 421,290.5C 421.499,296.157 421.666,301.824 421.5,307.5C 427.593,307.139 433.593,307.639 439.5,309C 443.5,313.333 443.5,317.667 439.5,322C 433.509,322.499 427.509,322.666 421.5,322.5C 421.666,328.509 421.499,334.509 421,340.5C 418.091,343.394 414.591,344.227 410.5,343C 408.951,341.786 407.785,340.286 407,338.5C 406.501,333.177 406.334,327.844 406.5,322.5C 400.824,322.666 395.157,322.499 389.5,322C 384.58,317.997 384.247,313.663 388.5,309C 394.407,307.639 400.407,307.139 406.5,307.5C 406.139,301.407 406.639,295.407 408,289.5C 409.409,288.219 410.909,287.219 412.5,286.5 Z"/></g>
<g><path style="opacity:0.989" fill="#441d03" d="M 84.5,287.5 C 155.167,287.333 225.834,287.5 296.5,288C 331.066,296.463 349.4,318.463 351.5,354C 349.249,388.25 331.583,409.916 298.5,419C 288.714,421.778 279.381,420.778 270.5,416C 260.807,406.577 258.973,395.744 265,383.5C 271.914,375.412 280.747,371.579 291.5,372C 304.106,365.183 307.273,355.349 301,342.5C 296.861,337.029 291.361,334.195 284.5,334C 217.833,333.667 151.167,333.333 84.5,333C 71.0828,327.671 65.9161,317.838 69,303.5C 71.685,295.65 76.8517,290.316 84.5,287.5 Z"/></g>
<g><path style="opacity:1" fill="#50dbb9" d="M 87.5,301.5 C 155.167,301.333 222.834,301.5 290.5,302C 314.112,305.942 329.279,319.442 336,342.5C 339.596,371.492 328.096,391.659 301.5,403C 294.649,405.245 287.649,405.912 280.5,405C 273.34,398.306 274.007,392.639 282.5,388C 308.507,385.661 320.34,371.494 318,345.5C 313.728,330.608 303.894,322.108 288.5,320C 221.833,319.667 155.167,319.333 88.5,319C 83.2685,316.367 81.4351,312.201 83,306.5C 84.7073,304.963 86.2073,303.296 87.5,301.5 Z"/></g>
<g><path style="opacity:0.973" fill="#431d03" d="M 87.5,353.5 C 103.94,353.277 113.273,361.277 115.5,377.5C 112.635,394.439 102.635,401.939 85.5,400C 68.5806,392.631 64.0806,380.465 72,363.5C 76.2053,358.492 81.3719,355.159 87.5,353.5 Z"/></g>
<g><path style="opacity:1" fill="#50d4b3" d="M 87.5,368.5 C 97.1583,366.993 101.325,370.993 100,380.5C 97.6471,385.426 93.8138,387.26 88.5,386C 83.2685,383.367 81.4351,379.201 83,373.5C 84.0591,371.341 85.5591,369.674 87.5,368.5 Z"/></g>
<g><path style="opacity:0.96" fill="#441d02" d="M 186.5,385.5 C 190.21,385.225 193.043,386.558 195,389.5C 196.351,395.072 196.851,400.738 196.5,406.5C 201.511,406.334 206.511,406.501 211.5,407C 218.451,410.798 219.118,415.465 213.5,421C 207.843,421.499 202.176,421.666 196.5,421.5C 196.861,427.593 196.361,433.593 195,439.5C 190.667,443.5 186.333,443.5 182,439.5C 181.501,433.509 181.334,427.509 181.5,421.5C 175.491,421.666 169.491,421.499 163.5,421C 158.196,415.554 158.863,410.888 165.5,407C 170.823,406.501 176.156,406.334 181.5,406.5C 181.334,400.824 181.501,395.157 182,389.5C 183.25,387.807 184.75,386.473 186.5,385.5 Z"/></g>
<g><path style="opacity:0.974" fill="#431d03" d="M 386.5,395.5 C 407.554,399.077 414.721,411.077 408,431.5C 401.36,441.274 392.193,444.774 380.5,442C 365.819,435.639 360.986,424.806 366,409.5C 370.282,400.953 377.115,396.286 386.5,395.5 Z"/></g>
<g><path style="opacity:1" fill="#50d7b5" d="M 383.5,410.5 C 392.495,409.663 396.661,413.663 396,422.5C 393.367,427.732 389.201,429.565 383.5,428C 376.864,422.091 376.864,416.258 383.5,410.5 Z"/></g>
</svg>
