<?xml version="1.0" encoding="UTF-8"?>
<!DOCTYPE svg PUBLIC "-//W3C//DTD SVG 1.1//EN" "http://www.w3.org/Graphics/SVG/1.1/DTD/svg11.dtd">
<svg xmlns="http://www.w3.org/2000/svg" version="1.1" width="700px" height="559px" style="shape-rendering:geometricPrecision; text-rendering:geometricPrecision; image-rendering:optimizeQuality; fill-rule:evenodd; clip-rule:evenodd" xmlns:xlink="http://www.w3.org/1999/xlink">
<g><path style="opacity:0.91" fill="#f7fbfc" d="M 340.5,-0.5 C 353.833,-0.5 367.167,-0.5 380.5,-0.5C 445.29,9.88348 491.957,44.5501 520.5,103.5C 520.291,104.086 519.957,104.586 519.5,105C 571.086,85.2168 618.086,92.8834 660.5,128C 679.492,146.892 691.825,168.725 697.5,193.5C 698.138,196.454 698.138,199.621 697.5,203C 698.094,203.464 698.761,203.631 699.5,203.5C 699.5,205.833 699.5,208.167 699.5,210.5C 698.167,210.833 698.167,211.167 699.5,211.5C 699.5,217.833 699.5,224.167 699.5,230.5C 698.167,230.833 698.167,231.167 699.5,231.5C 699.5,234.167 699.5,236.833 699.5,239.5C 690.887,287.491 663.887,321.158 618.5,340.5C 618.167,339.167 617.833,339.167 617.5,340.5C 608.803,343.176 599.637,345.509 590,347.5C 589.439,346.978 588.772,346.645 588,346.5C 564.36,347.152 540.86,347.819 517.5,348.5C 516.662,348.158 516.328,347.492 516.5,346.5C 538.814,346.754 561.148,346.421 583.5,345.5C 640.341,338.151 677.175,307.151 694,252.5C 705.59,192.559 686.09,146.059 635.5,113C 609.419,98.6804 581.753,93.847 552.5,98.5C 541.156,100.614 530.156,103.947 519.5,108.5C 493.467,49.652 448.801,14.4853 385.5,3C 369.515,1.2041 353.515,1.03744 337.5,2.5C 276.754,12.4795 232.254,44.4795 204,98.5C 200.814,104.889 198.314,111.556 196.5,118.5C 192.687,119.167 189.021,119.834 185.5,120.5C 177.215,121.321 169.215,122.988 161.5,125.5C 132.474,135.367 110.641,153.7 96,180.5C 94.9887,181.337 93.8221,181.67 92.5,181.5C 84.4144,181.199 76.4144,181.533 68.5,182.5C 34.8262,189.332 12.9928,209.332 3,242.5C -3.37008,272.022 3.29659,298.022 23,320.5C 36.3642,333.912 52.5309,342.079 71.5,345C 116.499,345.5 161.499,345.667 206.5,345.5C 206.737,346.791 206.404,347.791 205.5,348.5C 205.167,347.167 204.833,347.167 204.5,348.5C 160.618,347.184 116.785,347.184 73,348.5C 57.3809,345.345 42.8809,339.345 29.5,330.5C 24.8206,326.82 20.8206,322.486 17.5,317.5C 16.675,316.614 15.675,316.281 14.5,316.5C 11.9396,311.069 9.10623,305.735 6,300.5C 4.63926,296.279 3.13926,292.113 1.5,288C 2.45658,285.719 1.78991,283.886 -0.5,282.5C -0.5,281.167 -0.5,279.833 -0.5,278.5C 0.833333,278.167 0.833333,277.833 -0.5,277.5C -0.5,266.167 -0.5,254.833 -0.5,243.5C 0.528868,242.874 1.52887,242.041 2.5,241C 1.0745,239.286 1.40783,237.953 3.5,237C 2.92084,235.092 2.92084,233.425 3.5,232C 16.9454,202.813 39.9454,184.98 72.5,178.5C 79.3691,178.577 86.2024,178.911 93,179.5C 108.06,152.209 131.227,133.043 162.5,122C 172.804,120.318 183.137,118.818 193.5,117.5C 205.396,84.127 225.063,56.4604 252.5,34.5C 278.882,15.3735 308.215,3.70684 340.5,-0.5 Z"/></g>
<g><path style="opacity:1" fill="#bdd9e4" d="M 92.5,181.5 C 93.2625,182.268 94.2625,182.768 95.5,183C 92.69,187.76 90.8567,192.926 90,198.5C 88.871,208.463 88.2044,218.463 88,228.5C 77.3344,215.024 70.8344,199.69 68.5,182.5C 76.4144,181.533 84.4144,181.199 92.5,181.5 Z"/></g>
<g><path style="opacity:1" fill="#bdd9e5" d="M 185.5,120.5 C 188.898,120.18 192.232,120.513 195.5,121.5C 190.116,141.136 190.283,160.803 196,180.5C 198.2,185.865 201.034,190.865 204.5,195.5C 204.167,195.833 203.833,196.167 203.5,196.5C 179.995,178.496 165.995,154.829 161.5,125.5C 169.215,122.988 177.215,121.321 185.5,120.5 Z"/></g>
<g><path style="opacity:1" fill="#bdd9e5" d="M 583.5,345.5 C 568.496,345.667 553.496,345.5 538.5,345C 587.188,336.609 621.021,309.775 640,264.5C 654.243,219.616 647.243,178.616 619,141.5C 600.5,120.697 577.667,106.864 550.5,100C 551.416,99.7216 552.082,99.2216 552.5,98.5C 581.753,93.847 609.419,98.6804 635.5,113C 686.09,146.059 705.59,192.559 694,252.5C 677.175,307.151 640.341,338.151 583.5,345.5 Z"/></g>
<g><path style="opacity:1" fill="#d9ebf2" d="M 337.5,2.5 C 397.409,17.5692 441.575,52.5692 470,107.5C 472.344,113.854 474.844,120.188 477.5,126.5C 481.558,123.295 485.891,120.462 490.5,118C 499.939,113.909 509.606,110.742 519.5,108.5C 530.156,103.947 541.156,100.614 552.5,98.5C 552.082,99.2216 551.416,99.7216 550.5,100C 577.667,106.864 600.5,120.697 619,141.5C 647.243,178.616 654.243,219.616 640,264.5C 621.021,309.775 587.188,336.609 538.5,345C 553.496,345.5 568.496,345.667 583.5,345.5C 561.148,346.421 538.814,346.754 516.5,346.5C 497.167,345.167 477.833,345.167 458.5,346.5C 393.669,345.501 328.669,345.168 263.5,345.5C 244.5,345.5 225.5,345.5 206.5,345.5C 161.499,345.667 116.499,345.5 71.5,345C 52.5309,342.079 36.3642,333.912 23,320.5C 3.29659,298.022 -3.37008,272.022 3,242.5C 12.9928,209.332 34.8262,189.332 68.5,182.5C 70.8344,199.69 77.3344,215.024 88,228.5C 88.2044,218.463 88.871,208.463 90,198.5C 90.8567,192.926 92.69,187.76 95.5,183C 94.2625,182.768 93.2625,182.268 92.5,181.5C 93.8221,181.67 94.9887,181.337 96,180.5C 110.641,153.7 132.474,135.367 161.5,125.5C 165.995,154.829 179.995,178.496 203.5,196.5C 203.833,196.167 204.167,195.833 204.5,195.5C 201.034,190.865 198.2,185.865 196,180.5C 190.283,160.803 190.116,141.136 195.5,121.5C 192.232,120.513 188.898,120.18 185.5,120.5C 189.021,119.834 192.687,119.167 196.5,118.5C 198.314,111.556 200.814,104.889 204,98.5C 232.254,44.4795 276.754,12.4795 337.5,2.5 Z"/></g>
<g><path style="opacity:1" fill="#bdd9e5" d="M 519.5,108.5 C 509.606,110.742 499.939,113.909 490.5,118C 485.891,120.462 481.558,123.295 477.5,126.5C 474.844,120.188 472.344,113.854 470,107.5C 441.575,52.5692 397.409,17.5692 337.5,2.5C 353.515,1.03744 369.515,1.2041 385.5,3C 448.801,14.4853 493.467,49.652 519.5,108.5 Z"/></g>
<g><path style="opacity:0.02" fill="#fefffe" d="M 617.5,340.5 C 617.833,340.5 618.167,340.5 618.5,340.5C 618.315,341.17 617.981,341.17 617.5,340.5 Z"/></g>
<g><path style="opacity:1" fill="#1c8ba5" d="M 206.5,345.5 C 225.5,345.5 244.5,345.5 263.5,345.5C 266.124,351.719 269.124,357.719 272.5,363.5C 273.261,367.784 274.595,371.784 276.5,375.5C 276.5,375.833 276.5,376.167 276.5,376.5C 276.749,383.602 276.082,390.602 274.5,397.5C 271.931,400.961 269.597,404.628 267.5,408.5C 256.089,420.854 242.089,425.521 225.5,422.5C 250.094,413.654 259.927,396.32 255,370.5C 235.547,370.173 216.38,369.173 197.5,367.5C 197.5,366.833 197.5,366.167 197.5,365.5C 199.213,364.365 199.88,362.698 199.5,360.5C 200.345,359.329 201.011,357.995 201.5,356.5C 201.5,356.167 201.5,355.833 201.5,355.5C 203.588,353.664 204.921,351.331 205.5,348.5C 206.404,347.791 206.737,346.791 206.5,345.5 Z"/></g>
<g><path style="opacity:0.547" fill="#f8fcfd" d="M 263.5,345.5 C 328.669,345.168 393.669,345.501 458.5,346.5C 455.723,353.05 452.723,359.383 449.5,365.5C 450.371,359.39 452.704,353.89 456.5,349C 455.5,348.667 454.5,348.333 453.5,348C 390.833,347.333 328.167,347.333 265.5,348C 268.511,352.857 270.845,358.023 272.5,363.5C 269.124,357.719 266.124,351.719 263.5,345.5 Z"/></g>
<g><path style="opacity:1" fill="#1c8ba5" d="M 516.5,346.5 C 516.328,347.492 516.662,348.158 517.5,348.5C 517.992,350.819 518.992,352.819 520.5,354.5C 521.338,354.842 521.672,355.508 521.5,356.5C 521.707,359.241 522.707,361.574 524.5,363.5C 525.065,367.537 526.399,371.203 528.5,374.5C 528.5,375.167 528.5,375.833 528.5,376.5C 528.575,382.529 528.241,388.529 527.5,394.5C 527.737,395.791 527.404,396.791 526.5,397.5C 524.17,401.492 521.837,405.492 519.5,409.5C 507.778,421.073 493.778,425.407 477.5,422.5C 497.471,416.277 508.137,402.61 509.5,381.5C 508.83,377.49 508.163,373.49 507.5,369.5C 487.993,369.83 468.659,369.497 449.5,368.5C 449.5,367.5 449.5,366.5 449.5,365.5C 452.723,359.383 455.723,353.05 458.5,346.5C 477.833,345.167 497.167,345.167 516.5,346.5 Z"/></g>
<g><path style="opacity:0.282" fill="#eff8f9" d="M 517.5,348.5 C 519.539,349.911 520.539,351.911 520.5,354.5C 518.992,352.819 517.992,350.819 517.5,348.5 Z"/></g>
<g><path style="opacity:0.212" fill="#f0f8f9" d="M 204.5,348.5 C 204.833,348.5 205.167,348.5 205.5,348.5C 204.921,351.331 203.588,353.664 201.5,355.5C 201.062,355.565 200.728,355.399 200.5,355C 201.719,352.722 203.052,350.555 204.5,348.5 Z"/></g>
<g><path style="opacity:0.029" fill="#f8fbfc" d="M 201.5,356.5 C 201.011,357.995 200.345,359.329 199.5,360.5C 199.157,358.517 199.824,357.183 201.5,356.5 Z"/></g>
<g><path style="opacity:0.282" fill="#ebf6f8" d="M 521.5,356.5 C 523.293,358.426 524.293,360.759 524.5,363.5C 522.707,361.574 521.707,359.241 521.5,356.5 Z"/></g>
<g><path style="opacity:0.78" fill="#b4dae2" d="M 199.5,360.5 C 199.88,362.698 199.213,364.365 197.5,365.5C 198.171,364.153 198.171,362.986 197.5,362C 198.044,361.283 198.711,360.783 199.5,360.5 Z"/></g>
<g><path style="opacity:0.353" fill="#f5fafc" d="M 197.5,365.5 C 197.5,366.167 197.5,366.833 197.5,367.5C 196.833,368.5 196.167,369.5 195.5,370.5C 195.062,370.565 194.728,370.399 194.5,370C 195.053,368.122 196.053,366.622 197.5,365.5 Z"/></g>
<g><path style="opacity:0.044" fill="#f9fcfc" d="M 449.5,365.5 C 449.5,366.5 449.5,367.5 449.5,368.5C 448.833,369.5 448.167,370.5 447.5,371.5C 447.054,368.99 447.72,366.99 449.5,365.5 Z"/></g>
<g><path style="opacity:0.033" fill="#f8fcfd" d="M 272.5,363.5 C 274.806,367.085 276.139,371.085 276.5,375.5C 274.595,371.784 273.261,367.784 272.5,363.5 Z"/></g>
<g><path style="opacity:0.213" fill="#e9f5f7" d="M 524.5,363.5 C 526.601,366.797 527.935,370.463 528.5,374.5C 526.399,371.203 525.065,367.537 524.5,363.5 Z"/></g>
<g><path style="opacity:1" fill="#28a3b9" d="M 197.5,367.5 C 216.38,369.173 235.547,370.173 255,370.5C 259.927,396.32 250.094,413.654 225.5,422.5C 221.725,421.445 218.058,420.112 214.5,418.5C 212.508,417.17 210.508,415.836 208.5,414.5C 206.167,412.833 204.167,410.833 202.5,408.5C 202.573,406.973 201.906,405.973 200.5,405.5C 200.672,404.508 200.338,403.842 199.5,403.5C 199.068,402.29 198.401,401.29 197.5,400.5C 197.737,399.209 197.404,398.209 196.5,397.5C 195.662,397.158 195.328,396.492 195.5,395.5C 195.064,389 194.398,382.666 193.5,376.5C 193.833,375.833 194.167,375.167 194.5,374.5C 195.404,373.791 195.737,372.791 195.5,371.5C 195.5,371.167 195.5,370.833 195.5,370.5C 196.167,369.5 196.833,368.5 197.5,367.5 Z"/></g>
<g><path style="opacity:1" fill="#27a2b8" d="M 449.5,368.5 C 468.659,369.497 487.993,369.83 507.5,369.5C 508.163,373.49 508.83,377.49 509.5,381.5C 508.137,402.61 497.471,416.277 477.5,422.5C 476.833,422.5 476.167,422.5 475.5,422.5C 474.791,421.596 473.791,421.263 472.5,421.5C 468.375,418.599 464.041,415.932 459.5,413.5C 459.5,411.5 458.5,410.5 456.5,410.5C 456.262,408.596 455.262,407.262 453.5,406.5C 452.833,406.5 452.5,406.167 452.5,405.5C 452.672,404.508 452.338,403.842 451.5,403.5C 447.992,395.081 445.992,386.415 445.5,377.5C 445.5,377.167 445.5,376.833 445.5,376.5C 447.213,375.365 447.88,373.698 447.5,371.5C 448.167,370.5 448.833,369.5 449.5,368.5 Z"/></g>
<g><path style="opacity:0.439" fill="#eef7f8" d="M 195.5,371.5 C 195.737,372.791 195.404,373.791 194.5,374.5C 194.062,374.565 193.728,374.399 193.5,374C 194.066,373.005 194.733,372.172 195.5,371.5 Z"/></g>
<g><path style="opacity:0.353" fill="#f7fbfc" d="M 447.5,371.5 C 447.88,373.698 447.213,375.365 445.5,376.5C 445.402,374.447 446.069,372.78 447.5,371.5 Z"/></g>
<g><path style="opacity:0.353" fill="#f0f8fa" d="M 445.5,377.5 C 445.992,386.415 447.992,395.081 451.5,403.5C 448.463,400.94 446.629,397.607 446,393.5C 444.496,388.165 444.329,382.832 445.5,377.5 Z"/></g>
<g><path style="opacity:0.172" fill="#dff0f3" d="M 528.5,376.5 C 529.163,378.641 529.497,380.975 529.5,383.5C 529.637,387.447 528.97,391.114 527.5,394.5C 528.241,388.529 528.575,382.529 528.5,376.5 Z"/></g>
<g><path style="opacity:0.353" fill="#dceef1" d="M 193.5,376.5 C 194.398,382.666 195.064,389 195.5,395.5C 194.046,394.48 193.713,393.313 194.5,392C 192.434,386.794 192.1,381.627 193.5,376.5 Z"/></g>
<g><path style="opacity:0.052" fill="#f5fafb" d="M 276.5,376.5 C 277.648,380.981 277.815,385.648 277,390.5C 276.844,393.191 276.011,395.524 274.5,397.5C 276.082,390.602 276.749,383.602 276.5,376.5 Z"/></g>
<g><path style="opacity:0.282" fill="#eaf5f7" d="M 196.5,397.5 C 197.404,398.209 197.737,399.209 197.5,400.5C 195.519,399.895 195.185,398.895 196.5,397.5 Z"/></g>
<g><path style="opacity:0.029" fill="#f9fcfd" d="M 197.5,400.5 C 198.401,401.29 199.068,402.29 199.5,403.5C 198.833,403.5 198.5,403.833 198.5,404.5C 197.566,403.432 197.232,402.099 197.5,400.5 Z"/></g>
<g><path style="opacity:0.212" fill="#ebf6f8" d="M 526.5,397.5 C 525.695,402.45 523.362,406.45 519.5,409.5C 521.837,405.492 524.17,401.492 526.5,397.5 Z"/></g>
<g><path style="opacity:0.212" fill="#e6f2f5" d="M 199.5,403.5 C 200.338,403.842 200.672,404.508 200.5,405.5C 199.508,405.672 198.842,405.338 198.5,404.5C 199.167,404.5 199.5,404.167 199.5,403.5 Z"/></g>
<g><path style="opacity:0.145" fill="#f3fbfc" d="M 451.5,403.5 C 452.338,403.842 452.672,404.508 452.5,405.5C 450.302,405.591 449.969,404.925 451.5,403.5 Z"/></g>
<g><path style="opacity:0.076" fill="#eef7f9" d="M 200.5,405.5 C 201.906,405.973 202.573,406.973 202.5,408.5C 200.952,408.179 200.285,407.179 200.5,405.5 Z"/></g>
<g><path style="opacity:0.02" fill="#f0f8fa" d="M 274.5,397.5 C 273.72,401.127 272.22,404.46 270,407.5C 269.329,408.252 268.496,408.586 267.5,408.5C 269.597,404.628 271.931,400.961 274.5,397.5 Z"/></g>
<g><path style="opacity:0.212" fill="#deeff2" d="M 453.5,406.5 C 455.262,407.262 456.262,408.596 456.5,410.5C 455.317,409.496 453.984,408.662 452.5,408C 453.056,407.617 453.389,407.117 453.5,406.5 Z"/></g>
<g><path style="opacity:0.682" fill="#c4e2e8" d="M 456.5,410.5 C 458.5,410.5 459.5,411.5 459.5,413.5C 458.167,412.833 457.167,411.833 456.5,410.5 Z"/></g>
<g><path style="opacity:0.033" fill="#eff8f9" d="M 208.5,414.5 C 210.508,415.836 212.508,417.17 214.5,418.5C 211.465,418.653 209.465,417.32 208.5,414.5 Z"/></g>
<g><path style="opacity:0.247" fill="#f0f8f9" d="M 459.5,413.5 C 464.041,415.932 468.375,418.599 472.5,421.5C 470.153,421.881 467.82,421.215 465.5,419.5C 462.605,418.332 460.605,416.332 459.5,413.5 Z"/></g>
<g><path style="opacity:0.212" fill="#f7fbfb" d="M 472.5,421.5 C 473.791,421.263 474.791,421.596 475.5,422.5C 474.105,423.815 473.105,423.481 472.5,421.5 Z"/></g>
<g><path style="opacity:0.247" fill="#eff7f9" d="M 267.5,408.5 C 265.808,412.37 263.141,415.536 259.5,418C 246.118,425.64 232.451,426.974 218.5,422C 216.907,421.051 215.574,419.885 214.5,418.5C 218.058,420.112 221.725,421.445 225.5,422.5C 242.089,425.521 256.089,420.854 267.5,408.5 Z"/></g>
<g><path style="opacity:0.274" fill="#f5fafb" d="M 519.5,409.5 C 518.797,411.716 517.464,413.549 515.5,415C 503.818,423.966 490.818,427.133 476.5,424.5C 475.702,424.043 475.369,423.376 475.5,422.5C 476.167,422.5 476.833,422.5 477.5,422.5C 493.778,425.407 507.778,421.073 519.5,409.5 Z"/></g>
<g><path style="opacity:0.282" fill="#eff7f9" d="M 354.5,441.5 C 352.886,439.544 351.219,437.544 349.5,435.5C 348.482,436.193 347.482,436.859 346.5,437.5C 346.528,434.658 347.862,433.491 350.5,434C 352.54,436.185 353.874,438.685 354.5,441.5 Z"/></g>
<g><path style="opacity:0.178" fill="#ebf6f8" d="M 98.5,435.5 C 100.048,435.821 100.715,436.821 100.5,438.5C 99.0937,438.027 98.427,437.027 98.5,435.5 Z"/></g>
<g><path style="opacity:1" fill="#1d8ba5" d="M 354.5,441.5 C 357.244,445.985 359.744,450.652 362,455.5C 362.708,456.381 363.542,457.047 364.5,457.5C 365.238,459.94 366.571,461.94 368.5,463.5C 369.079,466.331 370.412,468.664 372.5,470.5C 372.427,472.027 373.094,473.027 374.5,473.5C 375.39,476.948 377.057,479.948 379.5,482.5C 379.166,485.491 380.166,487.824 382.5,489.5C 385.019,496.594 387.686,503.594 390.5,510.5C 391.833,515.167 391.833,519.833 390.5,524.5C 387.819,534.191 382.819,542.525 375.5,549.5C 370.407,552.713 365.073,555.38 359.5,557.5C 359.167,557.5 358.833,557.5 358.5,557.5C 352.048,557.916 345.715,557.416 339.5,556C 357.254,551.242 367.754,539.742 371,521.5C 371.137,512.079 369.137,503.079 365,494.5C 358.039,479.913 350.039,465.913 341,452.5C 340.506,450.866 340.34,449.199 340.5,447.5C 342.925,444.411 344.925,441.078 346.5,437.5C 347.482,436.859 348.482,436.193 349.5,435.5C 351.219,437.544 352.886,439.544 354.5,441.5 Z"/></g>
<g><path style="opacity:0.055" fill="#e9f5f7" d="M 613.5,451.5 C 609.487,446.664 605.82,441.497 602.5,436C 600.203,436.112 598.536,437.278 597.5,439.5C 597.652,435.513 599.652,434.013 603.5,435C 607.233,440.306 610.566,445.806 613.5,451.5 Z"/></g>
<g><path style="opacity:1" fill="#1e8ba6" d="M 98.5,435.5 C 98.427,437.027 99.0937,438.027 100.5,438.5C 100.427,440.027 101.094,441.027 102.5,441.5C 103.338,441.842 103.672,442.508 103.5,443.5C 104.475,445.795 105.808,447.795 107.5,449.5C 107.953,451.565 108.953,453.232 110.5,454.5C 110.427,456.027 111.094,457.027 112.5,457.5C 112.328,458.492 112.662,459.158 113.5,459.5C 113.932,460.71 114.599,461.71 115.5,462.5C 118.731,469.964 122.731,476.964 127.5,483.5C 128.338,483.842 128.672,484.508 128.5,485.5C 129.042,488.912 130.375,491.912 132.5,494.5C 133.338,494.842 133.672,495.508 133.5,496.5C 134.065,500.537 135.399,504.203 137.5,507.5C 140.136,514.263 140.136,520.929 137.5,527.5C 136.262,529.214 135.595,531.214 135.5,533.5C 129.208,544.785 119.875,552.452 107.5,556.5C 101.225,557.418 94.8918,557.751 88.5,557.5C 118.713,543.029 126.213,520.695 111,490.5C 103.302,476.664 95.4684,462.998 87.5,449.5C 88.1098,448.609 88.4431,447.609 88.5,446.5C 89.9063,446.027 90.573,445.027 90.5,443.5C 92.4974,441.487 94.164,439.154 95.5,436.5C 96.325,435.614 97.325,435.281 98.5,435.5 Z"/></g>
<g><path style="opacity:0.055" fill="#f7fbfc" d="M 100.5,438.5 C 102.048,438.821 102.715,439.821 102.5,441.5C 101.094,441.027 100.427,440.027 100.5,438.5 Z"/></g>
<g><path style="opacity:1" fill="#1c8ba5" d="M 613.5,451.5 C 613.427,453.027 614.094,454.027 615.5,454.5C 616.338,454.842 616.672,455.508 616.5,456.5C 616.427,458.027 617.094,459.027 618.5,459.5C 618.75,461.674 619.75,463.341 621.5,464.5C 622.338,464.842 622.672,465.508 622.5,466.5C 622.75,468.674 623.75,470.341 625.5,471.5C 626.338,471.842 626.672,472.508 626.5,473.5C 626.427,475.027 627.094,476.027 628.5,476.5C 628.5,476.833 628.5,477.167 628.5,477.5C 629.11,479.434 630.11,481.101 631.5,482.5C 631.157,484.483 631.824,485.817 633.5,486.5C 636.697,493.555 639.197,500.888 641,508.5C 641.852,509.571 642.685,510.571 643.5,511.5C 643.5,511.833 643.5,512.167 643.5,512.5C 642.401,519.753 641.067,527.086 639.5,534.5C 639.672,535.492 639.338,536.158 638.5,536.5C 636.75,537.659 635.75,539.326 635.5,541.5C 635.5,542.167 635.167,542.5 634.5,542.5C 631.5,544.833 628.833,547.5 626.5,550.5C 622.634,552.264 618.967,554.264 615.5,556.5C 608.196,557.302 600.862,557.635 593.5,557.5C 621.349,544.134 629.182,523.134 617,494.5C 610.451,480.164 602.784,466.497 594,453.5C 592.991,451.975 592.491,450.308 592.5,448.5C 593.11,447.609 593.443,446.609 593.5,445.5C 594.401,444.71 595.068,443.71 595.5,442.5C 596.906,442.027 597.573,441.027 597.5,439.5C 598.536,437.278 600.203,436.112 602.5,436C 605.82,441.497 609.487,446.664 613.5,451.5 Z"/></g>
<g><path style="opacity:0.353" fill="#eaf5f7" d="M 98.5,435.5 C 97.325,435.281 96.325,435.614 95.5,436.5C 94.164,439.154 92.4974,441.487 90.5,443.5C 91.4351,439.279 93.6018,435.946 97,433.5C 98.0299,433.836 98.5299,434.503 98.5,435.5 Z"/></g>
<g><path style="opacity:0.353" fill="#e3f2f5" d="M 597.5,439.5 C 597.573,441.027 596.906,442.027 595.5,442.5C 595.427,440.973 596.094,439.973 597.5,439.5 Z"/></g>
<g><path style="opacity:0.043" fill="#fafcfd" d="M 595.5,442.5 C 595.068,443.71 594.401,444.71 593.5,445.5C 592.326,443.632 592.993,442.632 595.5,442.5 Z"/></g>
<g><path style="opacity:0.055" fill="#f7fbfc" d="M 103.5,443.5 C 105.982,444.663 107.316,446.663 107.5,449.5C 105.808,447.795 104.475,445.795 103.5,443.5 Z"/></g>
<g><path style="opacity:0.682" fill="#c1e1e8" d="M 90.5,443.5 C 90.573,445.027 89.9063,446.027 88.5,446.5C 88.427,444.973 89.0937,443.973 90.5,443.5 Z"/></g>
<g><path style="opacity:0.047" fill="#eef6f8" d="M 593.5,445.5 C 593.443,446.609 593.11,447.609 592.5,448.5C 592.167,448.5 591.833,448.5 591.5,448.5C 591.285,446.821 591.952,445.821 593.5,445.5 Z"/></g>
<g><path style="opacity:0.178" fill="#f0f8f9" d="M 346.5,437.5 C 344.925,441.078 342.925,444.411 340.5,447.5C 336.892,453.772 332.892,459.772 328.5,465.5C 331.743,459.074 335.243,452.74 339,446.5C 341.364,443.31 343.864,440.31 346.5,437.5 Z"/></g>
<g><path style="opacity:0.047" fill="#fafdfd" d="M 591.5,448.5 C 590.737,450.368 589.737,452.035 588.5,453.5C 588.259,450.966 589.259,449.3 591.5,448.5 Z"/></g>
<g><path style="opacity:0.353" fill="#ddeef2" d="M 354.5,441.5 C 356.074,441.937 357.241,442.937 358,444.5C 360.726,448.619 362.893,452.952 364.5,457.5C 363.542,457.047 362.708,456.381 362,455.5C 359.744,450.652 357.244,445.985 354.5,441.5 Z"/></g>
<g><path style="opacity:0.353" fill="#e7f4f6" d="M 88.5,446.5 C 88.4431,447.609 88.1098,448.609 87.5,449.5C 85.8333,451.5 84.1667,453.5 82.5,455.5C 83.7232,451.951 85.7232,448.951 88.5,446.5 Z"/></g>
<g><path style="opacity:1" fill="#28a3b9" d="M 340.5,447.5 C 340.34,449.199 340.506,450.866 341,452.5C 350.039,465.913 358.039,479.913 365,494.5C 369.137,503.079 371.137,512.079 371,521.5C 367.754,539.742 357.254,551.242 339.5,556C 345.715,557.416 352.048,557.916 358.5,557.5C 358.5,557.833 358.5,558.167 358.5,558.5C 351.833,558.5 345.167,558.5 338.5,558.5C 338.5,558.167 338.5,557.833 338.5,557.5C 334.259,555.379 329.925,553.213 325.5,551C 323.229,548.218 320.563,546.051 317.5,544.5C 317.262,542.596 316.262,541.262 314.5,540.5C 313.674,537.515 312.341,534.849 310.5,532.5C 308.853,526.621 307.853,520.621 307.5,514.5C 307.5,514.167 307.5,513.833 307.5,513.5C 309.074,510.093 310.074,506.427 310.5,502.5C 316.784,490.266 322.784,477.932 328.5,465.5C 332.892,459.772 336.892,453.772 340.5,447.5 Z"/></g>
<g><path style="opacity:0.212" fill="#e1f0f3" d="M 107.5,449.5 C 108.931,450.446 110.264,451.612 111.5,453C 110.944,453.383 110.611,453.883 110.5,454.5C 108.953,453.232 107.953,451.565 107.5,449.5 Z"/></g>
<g><path style="opacity:0.145" fill="#f3fbfc" d="M 613.5,451.5 C 614.906,451.973 615.573,452.973 615.5,454.5C 614.094,454.027 613.427,453.027 613.5,451.5 Z"/></g>
<g><path style="opacity:0.069" fill="#f6fbfb" d="M 588.5,453.5 C 588.068,454.71 587.401,455.71 586.5,456.5C 586.285,454.821 586.952,453.821 588.5,453.5 Z"/></g>
<g><path style="opacity:1" fill="#27a3b9" d="M 591.5,448.5 C 591.833,448.5 592.167,448.5 592.5,448.5C 592.491,450.308 592.991,451.975 594,453.5C 602.784,466.497 610.451,480.164 617,494.5C 629.182,523.134 621.349,544.134 593.5,557.5C 593.167,557.5 592.833,557.5 592.5,557.5C 592.167,557.5 591.833,557.5 591.5,557.5C 590.121,555.403 588.455,555.07 586.5,556.5C 586.167,556.5 585.833,556.5 585.5,556.5C 578.985,552.336 572.985,547.336 567.5,541.5C 567.573,539.973 566.906,538.973 565.5,538.5C 565.34,536.847 564.674,535.514 563.5,534.5C 561.626,526.632 560.626,518.632 560.5,510.5C 560.41,507.848 561.076,505.515 562.5,503.5C 564.02,501.11 565.02,498.443 565.5,495.5C 567.625,492.912 568.958,489.912 569.5,486.5C 569.66,484.847 570.326,483.514 571.5,482.5C 574.669,478.167 577.336,473.5 579.5,468.5C 580.737,467.035 581.737,465.368 582.5,463.5C 583.338,463.158 583.672,462.492 583.5,461.5C 584.89,460.101 585.89,458.434 586.5,456.5C 587.401,455.71 588.068,454.71 588.5,453.5C 589.737,452.035 590.737,450.368 591.5,448.5 Z"/></g>
<g><path style="opacity:1" fill="#28a3b9" d="M 87.5,449.5 C 95.4684,462.998 103.302,476.664 111,490.5C 126.213,520.695 118.713,543.029 88.5,557.5C 87.8333,557.5 87.1667,557.5 86.5,557.5C 84.064,556.129 81.3973,555.129 78.5,554.5C 78.1583,553.662 77.4916,553.328 76.5,553.5C 76.0269,552.094 75.0269,551.427 73.5,551.5C 72.5637,550.026 71.2303,549.026 69.5,548.5C 68.5,548.167 67.8333,547.5 67.5,546.5C 67.1667,545.5 66.5,544.833 65.5,544.5C 59.9193,537.562 56.7526,529.562 56,520.5C 55.6174,519.944 55.1174,519.611 54.5,519.5C 54.5,517.833 54.5,516.167 54.5,514.5C 56.5969,513.121 56.9302,511.455 55.5,509.5C 55.5,509.167 55.5,508.833 55.5,508.5C 59.0714,501.799 62.0714,494.799 64.5,487.5C 66.0075,485.819 67.0075,483.819 67.5,481.5C 67.3284,480.508 67.6618,479.842 68.5,479.5C 69.6737,478.486 70.3404,477.153 70.5,475.5C 73.7802,473.064 75.7802,469.731 76.5,465.5C 78.4077,464.514 79.4077,462.848 79.5,460.5C 81.2503,459.341 82.2503,457.674 82.5,455.5C 84.1667,453.5 85.8333,451.5 87.5,449.5 Z"/></g>
<g><path style="opacity:0.212" fill="#e0f0f3" d="M 110.5,454.5 C 111.906,454.973 112.573,455.973 112.5,457.5C 111.094,457.027 110.427,456.027 110.5,454.5 Z"/></g>
<g><path style="opacity:0.145" fill="#f0f9fa" d="M 82.5,455.5 C 82.2503,457.674 81.2503,459.341 79.5,460.5C 79.7497,458.326 80.7497,456.659 82.5,455.5 Z"/></g>
<g><path style="opacity:0.047" fill="#e8f4f6" d="M 112.5,457.5 C 114.698,457.409 115.031,458.075 113.5,459.5C 112.662,459.158 112.328,458.492 112.5,457.5 Z"/></g>
<g><path style="opacity:0.214" fill="#f1fafb" d="M 616.5,456.5 C 617.906,456.973 618.573,457.973 618.5,459.5C 617.094,459.027 616.427,458.027 616.5,456.5 Z"/></g>
<g><path style="opacity:0.029" fill="#f9fcfd" d="M 586.5,456.5 C 585.89,458.434 584.89,460.101 583.5,461.5C 583.389,460.883 583.056,460.383 582.5,460C 583.532,458.373 584.866,457.207 586.5,456.5 Z"/></g>
<g><path style="opacity:0.055" fill="#f4fafb" d="M 113.5,459.5 C 115.048,459.821 115.715,460.821 115.5,462.5C 114.599,461.71 113.932,460.71 113.5,459.5 Z"/></g>
<g><path style="opacity:0.069" fill="#e3f0f3" d="M 364.5,457.5 C 366.982,458.663 368.316,460.663 368.5,463.5C 368.316,460.663 366.982,458.663 364.5,457.5 Z"/></g>
<g><path style="opacity:0.145" fill="#ebf7f9" d="M 618.5,459.5 C 620.25,460.659 621.25,462.326 621.5,464.5C 619.75,463.341 618.75,461.674 618.5,459.5 Z"/></g>
<g><path style="opacity:0.282" fill="#f1f9fa" d="M 583.5,461.5 C 583.672,462.492 583.338,463.158 582.5,463.5C 580.969,462.075 581.302,461.409 583.5,461.5 Z"/></g>
<g><path style="opacity:0.033" fill="#ecf6f8" d="M 115.5,462.5 C 120.965,468.45 124.965,475.45 127.5,483.5C 122.731,476.964 118.731,469.964 115.5,462.5 Z"/></g>
<g><path style="opacity:0.882" fill="#bce0e6" d="M 79.5,460.5 C 79.4077,462.848 78.4077,464.514 76.5,465.5C 76.7497,463.326 77.7497,461.659 79.5,460.5 Z"/></g>
<g><path style="opacity:0.145" fill="#e8f5f7" d="M 368.5,463.5 C 370.669,465.34 372.002,467.674 372.5,470.5C 370.412,468.664 369.079,466.331 368.5,463.5 Z"/></g>
<g><path style="opacity:0.282" fill="#f4fafb" d="M 582.5,463.5 C 581.737,465.368 580.737,467.035 579.5,468.5C 579.389,467.883 579.056,467.383 578.5,467C 579.532,465.373 580.866,464.207 582.5,463.5 Z"/></g>
<g><path style="opacity:0.145" fill="#e6f5f7" d="M 622.5,466.5 C 624.25,467.659 625.25,469.326 625.5,471.5C 623.75,470.341 622.75,468.674 622.5,466.5 Z"/></g>
<g><path style="opacity:0.882" fill="#bfe1e8" d="M 76.5,465.5 C 75.7802,469.731 73.7802,473.064 70.5,475.5C 72.0002,471.827 74.0002,468.494 76.5,465.5 Z"/></g>
<g><path style="opacity:0.212" fill="#e8f4f6" d="M 372.5,470.5 C 373.906,470.973 374.573,471.973 374.5,473.5C 373.094,473.027 372.427,472.027 372.5,470.5 Z"/></g>
<g><path style="opacity:0.09" fill="#edf6f8" d="M 626.5,473.5 C 627.906,473.973 628.573,474.973 628.5,476.5C 627.094,476.027 626.427,475.027 626.5,473.5 Z"/></g>
<g><path style="opacity:0.069" fill="#daecf0" d="M 328.5,465.5 C 322.784,477.932 316.784,490.266 310.5,502.5C 310.32,498.37 311.654,494.87 314.5,492C 317.859,482.795 322.526,473.962 328.5,465.5 Z"/></g>
<g><path style="opacity:0.353" fill="#f2f9fa" d="M 579.5,468.5 C 577.336,473.5 574.669,478.167 571.5,482.5C 572.963,477.063 575.629,472.396 579.5,468.5 Z"/></g>
<g><path style="opacity:0.145" fill="#fbfffe" d="M 70.5,475.5 C 70.3404,477.153 69.6737,478.486 68.5,479.5C 68.2291,477.62 68.8958,476.287 70.5,475.5 Z"/></g>
<g><path style="opacity:0.055" fill="#f1f9fa" d="M 628.5,477.5 C 630.741,478.3 631.741,479.966 631.5,482.5C 630.11,481.101 629.11,479.434 628.5,477.5 Z"/></g>
<g><path style="opacity:0.069" fill="#f6fbfb" d="M 374.5,473.5 C 376.924,476.008 378.59,479.008 379.5,482.5C 377.057,479.948 375.39,476.948 374.5,473.5 Z"/></g>
<g><path style="opacity:0.055" fill="#fbfdfd" d="M 67.5,481.5 C 67.0075,483.819 66.0075,485.819 64.5,487.5C 64.461,484.911 65.461,482.911 67.5,481.5 Z"/></g>
<g><path style="opacity:0.78" fill="#c4e1e7" d="M 379.5,482.5 C 380.69,484.355 382.023,486.188 383.5,488C 382.944,488.383 382.611,488.883 382.5,489.5C 380.166,487.824 379.166,485.491 379.5,482.5 Z"/></g>
<g><path style="opacity:0.91" fill="#add4dc" d="M 631.5,482.5 C 632.674,483.514 633.34,484.847 633.5,486.5C 631.824,485.817 631.157,484.483 631.5,482.5 Z"/></g>
<g><path style="opacity:0.029" fill="#eff8f9" d="M 382.5,489.5 C 384.379,489.393 384.712,489.893 383.5,491C 385.165,493.914 386.832,496.914 388.5,500C 388.167,500.333 387.833,500.667 387.5,501C 389.481,501.605 389.815,502.605 388.5,504C 390.229,505.789 390.896,507.956 390.5,510.5C 387.686,503.594 385.019,496.594 382.5,489.5 Z"/></g>
<g><path style="opacity:0.212" fill="#f0f8f9" d="M 128.5,485.5 C 130.625,488.088 131.958,491.088 132.5,494.5C 130.375,491.912 129.042,488.912 128.5,485.5 Z"/></g>
<g><path style="opacity:0.247" fill="#f4fafa" d="M 569.5,486.5 C 568.958,489.912 567.625,492.912 565.5,495.5C 565.692,491.898 567.026,488.898 569.5,486.5 Z"/></g>
<g><path style="opacity:0.033" fill="#eff7f9" d="M 64.5,487.5 C 62.0714,494.799 59.0714,501.799 55.5,508.5C 57.174,500.831 60.174,493.831 64.5,487.5 Z"/></g>
<g><path style="opacity:0.145" fill="#f2fbfc" d="M 565.5,495.5 C 565.02,498.443 564.02,501.11 562.5,503.5C 562.415,500.351 563.415,497.684 565.5,495.5 Z"/></g>
<g><path style="opacity:0.191" fill="#ebf7f8" d="M 133.5,496.5 C 135.601,499.797 136.935,503.463 137.5,507.5C 135.399,504.203 134.065,500.537 133.5,496.5 Z"/></g>
<g><path style="opacity:0.353" fill="#eff8f9" d="M 310.5,502.5 C 310.074,506.427 309.074,510.093 307.5,513.5C 307.674,510.126 308.174,506.793 309,503.5C 309.383,502.944 309.883,502.611 310.5,502.5 Z"/></g>
<g><path style="opacity:0.439" fill="#e8f4f6" d="M 633.5,486.5 C 638.733,493.982 642.067,502.315 643.5,511.5C 642.685,510.571 641.852,509.571 641,508.5C 639.197,500.888 636.697,493.555 633.5,486.5 Z"/></g>
<g><path style="opacity:0.439" fill="#edf7f9" d="M 55.5,509.5 C 56.9302,511.455 56.5969,513.121 54.5,514.5C 54.366,512.708 54.6993,511.042 55.5,509.5 Z"/></g>
<g><path style="opacity:0.882" fill="#b6dde5" d="M 560.5,510.5 C 560.626,518.632 561.626,526.632 563.5,534.5C 561.672,531.865 560.505,528.865 560,525.5C 559.184,520.316 559.35,515.316 560.5,510.5 Z"/></g>
<g><path style="opacity:0.259" fill="#f4fafb" d="M 307.5,514.5 C 307.853,520.621 308.853,526.621 310.5,532.5C 308.802,529.966 307.469,527.132 306.5,524C 306.397,520.783 306.73,517.617 307.5,514.5 Z"/></g>
<g><path style="opacity:0.145" fill="#f4fbfc" d="M 137.5,527.5 C 137.741,529.898 137.074,531.898 135.5,533.5C 135.595,531.214 136.262,529.214 137.5,527.5 Z"/></g>
<g><path style="opacity:0.043" fill="#ebf5f7" d="M 54.5,519.5 C 55.1174,519.611 55.6174,519.944 56,520.5C 56.7526,529.562 59.9193,537.562 65.5,544.5C 62.0852,542.382 59.5852,539.382 58,535.5C 55.8818,530.362 54.7151,525.029 54.5,519.5 Z"/></g>
<g><path style="opacity:0.247" fill="#ecf6f8" d="M 390.5,524.5 C 390.365,529.104 389.031,533.27 386.5,537C 386.833,537.333 387.167,537.667 387.5,538C 384.8,541.709 381.8,545.209 378.5,548.5C 377.675,549.386 376.675,549.719 375.5,549.5C 382.819,542.525 387.819,534.191 390.5,524.5 Z"/></g>
<g><path style="opacity:0.145" fill="#e2f2f5" d="M 643.5,512.5 C 644.594,517.466 644.428,522.466 643,527.5C 642.861,530.445 641.694,532.779 639.5,534.5C 641.067,527.086 642.401,519.753 643.5,512.5 Z"/></g>
<g><path style="opacity:0.353" fill="#e6f4f6" d="M 310.5,532.5 C 312.341,534.849 313.674,537.515 314.5,540.5C 311.942,538.566 310.609,535.899 310.5,532.5 Z"/></g>
<g><path style="opacity:0.282" fill="#f6fbfb" d="M 563.5,534.5 C 564.674,535.514 565.34,536.847 565.5,538.5C 563.896,537.713 563.229,536.38 563.5,534.5 Z"/></g>
<g><path style="opacity:0.353" fill="#e1f1f4" d="M 638.5,536.5 C 638.25,538.674 637.25,540.341 635.5,541.5C 635.75,539.326 636.75,537.659 638.5,536.5 Z"/></g>
<g><path style="opacity:0.09" fill="#edf6f8" d="M 565.5,538.5 C 566.906,538.973 567.573,539.973 567.5,541.5C 566.094,541.027 565.427,540.027 565.5,538.5 Z"/></g>
<g><path style="opacity:0.145" fill="#e8f6f8" d="M 314.5,540.5 C 316.262,541.262 317.262,542.596 317.5,544.5C 315.738,543.738 314.738,542.404 314.5,540.5 Z"/></g>
<g><path style="opacity:0.052" fill="#f3fafb" d="M 634.5,542.5 C 633.517,546.816 630.85,549.483 626.5,550.5C 628.833,547.5 631.5,544.833 634.5,542.5 Z"/></g>
<g><path style="opacity:0.02" fill="#fafcfc" d="M 65.5,544.5 C 66.5,544.833 67.1667,545.5 67.5,546.5C 66.1667,546.5 65.5,545.833 65.5,544.5 Z"/></g>
<g><path style="opacity:0.02" fill="#f1f8f9" d="M 69.5,548.5 C 71.2303,549.026 72.5637,550.026 73.5,551.5C 71.0274,551.912 69.6941,550.912 69.5,548.5 Z"/></g>
<g><path style="opacity:0.069" fill="#e5f3f5" d="M 135.5,533.5 C 130.674,546.325 121.674,554.659 108.5,558.5C 108.167,558.5 107.833,558.5 107.5,558.5C 107.5,558.167 107.5,557.833 107.5,557.5C 107.5,557.167 107.5,556.833 107.5,556.5C 119.875,552.452 129.208,544.785 135.5,533.5 Z"/></g>
<g><path style="opacity:0.055" fill="#f1f8fa" d="M 567.5,541.5 C 572.985,547.336 578.985,552.336 585.5,556.5C 577.655,553.65 571.655,548.65 567.5,541.5 Z"/></g>
<g><path style="opacity:0.247" fill="#f2f9fa" d="M 73.5,551.5 C 75.0269,551.427 76.0269,552.094 76.5,553.5C 74.8773,554.491 73.8773,553.824 73.5,551.5 Z"/></g>
<g><path style="opacity:0.214" fill="#e3f2f5" d="M 317.5,544.5 C 320.563,546.051 323.229,548.218 325.5,551C 329.925,553.213 334.259,555.379 338.5,557.5C 329.737,556.08 322.737,551.747 317.5,544.5 Z"/></g>
<g><path style="opacity:0.247" fill="#f7fbfb" d="M 76.5,553.5 C 77.4916,553.328 78.1583,553.662 78.5,554.5C 77.0755,556.031 76.4088,555.698 76.5,553.5 Z"/></g>
<g><path style="opacity:0.145" fill="#edf7f9" d="M 375.5,549.5 C 371.296,554.269 365.963,556.935 359.5,557.5C 365.073,555.38 370.407,552.713 375.5,549.5 Z"/></g>
<g><path style="opacity:0.029" fill="#f8fbfc" d="M 78.5,554.5 C 81.3973,555.129 84.064,556.129 86.5,557.5C 83.1889,557.693 80.5223,556.693 78.5,554.5 Z"/></g>
<g><path style="opacity:0.996" fill="#a9d6df" d="M 586.5,556.5 C 588.455,555.07 590.121,555.403 591.5,557.5C 590.833,557.5 590.5,557.833 590.5,558.5C 590.167,558.5 589.833,558.5 589.5,558.5C 588.71,557.599 587.71,556.932 586.5,556.5 Z"/></g>
<g><path style="opacity:0.212" fill="#edf6f8" d="M 626.5,550.5 C 625.754,552.343 624.421,553.676 622.5,554.5C 620.433,555.134 618.6,556.134 617,557.5C 616.617,556.944 616.117,556.611 615.5,556.5C 618.967,554.264 622.634,552.264 626.5,550.5 Z"/></g>
<g><path style="opacity:0.682" fill="#add8e0" d="M 107.5,556.5 C 107.5,556.833 107.5,557.167 107.5,557.5C 106.833,557.5 106.5,557.833 106.5,558.5C 99.8333,558.5 93.1667,558.5 86.5,558.5C 86.5,558.167 86.5,557.833 86.5,557.5C 87.1667,557.5 87.8333,557.5 88.5,557.5C 94.8918,557.751 101.225,557.418 107.5,556.5 Z"/></g>
<g><path style="opacity:0.282" fill="#d2eaee" d="M 615.5,556.5 C 615.167,557.167 614.833,557.833 614.5,558.5C 614.167,558.5 613.833,558.5 613.5,558.5C 612.833,557.167 612.167,557.167 611.5,558.5C 605.167,558.5 598.833,558.5 592.5,558.5C 592.5,558.167 592.5,557.833 592.5,557.5C 592.833,557.5 593.167,557.5 593.5,557.5C 600.862,557.635 608.196,557.302 615.5,556.5 Z"/></g>
</svg>
