<?xml version="1.0" encoding="UTF-8"?>
<!DOCTYPE svg PUBLIC "-//W3C//DTD SVG 1.1//EN" "http://www.w3.org/Graphics/SVG/1.1/DTD/svg11.dtd">
<svg xmlns="http://www.w3.org/2000/svg" version="1.1" width="512px" height="512px" style="shape-rendering:geometricPrecision; text-rendering:geometricPrecision; image-rendering:optimizeQuality; fill-rule:evenodd; clip-rule:evenodd" xmlns:xlink="http://www.w3.org/1999/xlink">
<g><path style="opacity:0.973" fill="#284368" d="M 234.5,260.5 C 234.393,258.097 235.393,256.264 237.5,255C 250.5,254.667 263.5,254.333 276.5,254C 307.977,248.524 324.644,229.858 326.5,198C 324.218,170.717 309.885,153.383 283.5,146C 263.167,141.748 245.833,147.081 231.5,162C 224.186,164.021 221.352,161.187 223,153.5C 229.741,146.547 237.574,141.214 246.5,137.5C 249.166,100.67 232.833,76.8366 197.5,66C 193.23,64.9246 188.897,64.4246 184.5,64.5C 150.449,66.1911 129.115,83.5244 120.5,116.5C 120.62,118.588 121.62,119.922 123.5,120.5C 136.442,126.293 146.442,135.293 153.5,147.5C 152.417,152.378 149.417,154.211 144.5,153C 133.011,137.422 117.678,128.255 98.5,125.5C 69.5503,122.916 47.717,134.249 33,159.5C 19.9441,189.554 25.1107,216.054 48.5,239C 58.488,246.891 69.8213,251.891 82.5,254C 118.165,254.5 153.832,254.667 189.5,254.5C 192.621,255.288 194.288,257.288 194.5,260.5C 194.607,262.903 193.607,264.736 191.5,266C 154.833,266.667 118.167,266.667 81.5,266C 39.6241,257.622 16.9574,232.122 13.5,189.5C 16.1558,150.009 36.4891,124.843 74.5,114C 85.5565,111.87 96.5565,112.037 107.5,114.5C 120.083,70.8683 149.083,50.3683 194.5,53C 208.923,54.881 221.59,60.5477 232.5,70C 237.978,70.0254 243.478,69.8587 249,69.5C 254.808,69.3764 260.474,70.0431 266,71.5C 278.729,27.1333 308.229,6.63333 354.5,10C 396.301,19.9722 417.634,46.4722 418.5,89.5C 452.343,85.9997 476.843,99.3331 492,129.5C 503.029,160.367 496.529,186.867 472.5,209C 462.503,216.78 451.169,221.447 438.5,223C 403.833,223.333 369.167,223.667 334.5,224C 325.007,245.151 309.007,258.818 286.5,265C 270.206,266.573 253.873,266.906 237.5,266C 235.329,264.826 234.329,262.993 234.5,260.5 Z"/></g>
<g><path style="opacity:1" fill="#52d7d7" d="M 244.5,83.5 C 247.962,82.5184 251.629,82.185 255.5,82.5C 274.877,84.3538 290.21,93.1871 301.5,109C 306.954,111.955 310.287,110.455 311.5,104.5C 304.191,90.8605 293.191,81.5272 278.5,76.5C 284.11,46.7221 301.777,28.5554 331.5,22C 369.352,19.5329 393.852,36.3662 405,72.5C 405.831,79.856 405.665,87.1893 404.5,94.5C 395.409,98.4243 387.575,104.091 381,111.5C 380.004,118.166 382.837,120.666 389.5,119C 408.396,100.531 430.063,96.5311 454.5,107C 480.312,122.141 489.479,144.308 482,173.5C 474.08,194.75 458.914,207.25 436.5,211C 403.502,211.5 370.502,211.667 337.5,211.5C 341.51,176.379 327.51,151.545 295.5,137C 284.082,132.962 272.415,131.796 260.5,133.5C 260.553,114.995 255.219,98.328 244.5,83.5 Z"/></g>
<g><path style="opacity:1" fill="#60b4b4" d="M 184.5,64.5 C 160.89,76.939 146.724,96.2724 142,122.5C 135.88,119.887 129.714,119.221 123.5,120.5C 121.62,119.922 120.62,118.588 120.5,116.5C 129.115,83.5244 150.449,66.1911 184.5,64.5 Z"/></g>
<g><path style="opacity:1" fill="#7be5e7" d="M 184.5,64.5 C 188.897,64.4246 193.23,64.9246 197.5,66C 232.833,76.8366 249.166,100.67 246.5,137.5C 237.574,141.214 229.741,146.547 223,153.5C 221.352,161.187 224.186,164.021 231.5,162C 245.833,147.081 263.167,141.748 283.5,146C 309.885,153.383 324.218,170.717 326.5,198C 324.644,229.858 307.977,248.524 276.5,254C 263.5,254.333 250.5,254.667 237.5,255C 235.393,256.264 234.393,258.097 234.5,260.5C 221.167,260.5 207.833,260.5 194.5,260.5C 194.288,257.288 192.621,255.288 189.5,254.5C 156.336,253.668 123.003,253.168 89.5,253C 57.2947,234.077 45.1281,206.244 53,169.5C 59.1852,149.952 71.3519,135.452 89.5,126C 92.4816,125.502 95.4816,125.335 98.5,125.5C 117.678,128.255 133.011,137.422 144.5,153C 149.417,154.211 152.417,152.378 153.5,147.5C 146.442,135.293 136.442,126.293 123.5,120.5C 129.714,119.221 135.88,119.887 142,122.5C 146.724,96.2724 160.89,76.939 184.5,64.5 Z"/></g>
<g><path style="opacity:1" fill="#4097a7" d="M 255.5,82.5 C 251.629,82.185 247.962,82.5184 244.5,83.5C 243.957,83.44 243.624,83.1067 243.5,82.5C 247.649,81.1905 251.649,81.1905 255.5,82.5 Z"/></g>
<g><path style="opacity:1" fill="#60b2b4" d="M 98.5,125.5 C 95.4816,125.335 92.4816,125.502 89.5,126C 71.3519,135.452 59.1852,149.952 53,169.5C 45.1281,206.244 57.2947,234.077 89.5,253C 123.003,253.168 156.336,253.668 189.5,254.5C 153.832,254.667 118.165,254.5 82.5,254C 69.8213,251.891 58.488,246.891 48.5,239C 25.1107,216.054 19.9441,189.554 33,159.5C 47.717,134.249 69.5503,122.916 98.5,125.5 Z"/></g>
<g><path style="opacity:0.935" fill="#274267" d="M 21.5,264.5 C 32.4856,263.653 36.9856,268.653 35,279.5C 29.749,286.475 23.749,287.142 17,281.5C 13.3479,274.441 14.8479,268.774 21.5,264.5 Z"/></g>
<g><path style="opacity:0.948" fill="#284167" d="M 444.5,263.5 C 456.279,264.767 460.779,271.1 458,282.5C 454.345,289.07 448.845,291.237 441.5,289C 437.667,287.833 435.167,285.333 434,281.5C 431.634,271.882 435.134,265.882 444.5,263.5 Z"/></g>
<g><path style="opacity:0.951" fill="#274167" d="M 143.5,278.5 C 146.97,277.875 149.804,278.875 152,281.5C 152.333,288.5 152.667,295.5 153,302.5C 156.501,299.083 160.501,296.416 165,294.5C 171.784,296.374 173.284,300.374 169.5,306.5C 164.089,310.622 158.589,314.622 153,318.5C 152.333,330.5 152.333,342.5 153,354.5C 162.667,348.833 172.333,343.167 182,337.5C 183.436,330.579 184.436,323.579 185,316.5C 188.203,310.864 192.203,310.198 197,314.5C 197.492,319.551 197.492,324.551 197,329.5C 203.077,325.629 209.411,322.295 216,319.5C 222.56,321.252 224.06,325.085 220.5,331C 214.669,334.081 209.002,337.415 203.5,341C 208.081,342.871 212.248,345.371 216,348.5C 216.997,355.833 213.83,358.666 206.5,357C 200.725,354.362 194.891,351.862 189,349.5C 178.605,354.947 168.438,360.781 158.5,367C 168.677,373.183 178.843,379.349 189,385.5C 194.891,383.138 200.725,380.638 206.5,378C 214.746,376.572 217.579,379.739 215,387.5C 211.227,390.304 207.06,392.471 202.5,394C 208.333,397.833 214.167,401.667 220,405.5C 222.167,414 219,417.167 210.5,415C 205.581,411.958 200.748,408.791 196,405.5C 196.77,410.477 196.603,415.477 195.5,420.5C 192.792,422.436 189.792,422.936 186.5,422C 185.299,421.097 184.465,419.931 184,418.5C 183.168,411.516 182.501,404.516 182,397.5C 172.753,391.125 163.253,385.125 153.5,379.5C 152.334,390.485 152.168,401.485 153,412.5C 159.181,416.925 165.181,421.592 171,426.5C 173.04,432.352 171.04,435.685 165,436.5C 160.81,434.823 156.977,432.489 153.5,429.5C 152.669,436.811 152.169,444.144 152,451.5C 146.587,456.153 142.587,455.153 140,448.5C 139.667,442.167 139.333,435.833 139,429.5C 135.089,434.045 130.255,436.212 124.5,436C 119.714,432.5 119.381,428.667 123.5,424.5C 128.755,420.956 133.921,417.29 139,413.5C 139.667,401.5 139.667,389.5 139,377.5C 129.333,383.167 119.667,388.833 110,394.5C 108.836,401.81 107.836,409.144 107,416.5C 103.478,421.398 99.4784,421.731 95,417.5C 94.7884,412.742 94.6217,408.075 94.5,403.5C 88.1751,407.245 81.6751,410.579 75,413.5C 68.4405,411.748 66.9405,407.915 70.5,402C 76.5,398.333 82.5,394.667 88.5,391C 84.4234,389.213 80.59,387.046 77,384.5C 74.4778,376.685 77.3112,373.518 85.5,375C 91.5324,377.433 97.3657,380.266 103,383.5C 112.916,377.793 122.749,371.959 132.5,366C 123.4,360.368 114.233,354.868 105,349.5C 98.8333,352 92.6667,354.5 86.5,357C 78.5162,357.55 76.0162,354.05 79,346.5C 82.786,344.357 86.6193,342.357 90.5,340.5C 83.914,336.291 77.414,331.957 71,327.5C 68.8333,319 72,315.833 80.5,318C 86,321.5 91.5,325 97,328.5C 97.3333,323.833 97.6667,319.167 98,314.5C 102.902,310.014 106.902,310.681 110,316.5C 110.607,323.506 111.273,330.506 112,337.5C 121,343.167 130,348.833 139,354.5C 139.833,342.153 139.666,329.82 138.5,317.5C 133.5,314 128.5,310.5 123.5,307C 118.906,301.009 120.239,296.842 127.5,294.5C 131.712,296.19 135.545,298.524 139,301.5C 139.333,295.833 139.667,290.167 140,284.5C 140.564,282.113 141.73,280.113 143.5,278.5 Z"/></g>
<g><path style="opacity:0.948" fill="#284167" d="M 299.5,300.5 C 313.986,299.816 319.486,306.483 316,320.5C 310.175,327.07 303.342,328.237 295.5,324C 288.535,314.666 289.868,306.832 299.5,300.5 Z"/></g>
<g><path style="opacity:0.941" fill="#274167" d="M 400.5,325.5 C 403.233,325.948 405.399,327.281 407,329.5C 407.333,336.167 407.667,342.833 408,349.5C 411.621,346.362 415.621,344.028 420,342.5C 426.754,344.051 428.254,347.885 424.5,354C 419.306,358.027 413.973,361.86 408.5,365.5C 407.167,377.5 407.167,389.5 408.5,401.5C 417.833,396.167 427.167,390.833 436.5,385.5C 437.921,378.216 439.088,370.882 440,363.5C 442.053,359.708 445.219,358.542 449.5,360C 451.742,361.986 452.742,364.486 452.5,367.5C 451.862,370.503 451.695,373.503 452,376.5C 457.959,372.771 464.126,369.437 470.5,366.5C 477.387,368.991 478.72,373.158 474.5,379C 469.002,381.915 463.668,385.081 458.5,388.5C 462.318,390.242 465.984,392.242 469.5,394.5C 472.314,398.582 471.647,402.082 467.5,405C 465.5,405.667 463.5,405.667 461.5,405C 455.621,401.894 449.621,399.06 443.5,396.5C 433.37,402.134 423.37,407.967 413.5,414C 423.127,420.798 433.127,426.965 443.5,432.5C 449.867,430.099 456.201,427.599 462.5,425C 469.375,424.552 471.875,427.718 470,434.5C 466.215,437.642 462.048,440.142 457.5,442C 463.59,445.46 469.423,449.294 475,453.5C 476.719,460.78 473.885,463.947 466.5,463C 461.333,459.833 456.167,456.667 451,453.5C 450.555,456.678 450.722,459.845 451.5,463C 450.62,469.942 446.953,471.942 440.5,469C 440,468.5 439.5,468 439,467.5C 438.12,459.813 437.12,452.147 436,444.5C 426.667,438.5 417.333,432.5 408,426.5C 407.333,437.833 407.333,449.167 408,460.5C 413.589,464.378 419.089,468.378 424.5,472.5C 428.192,480.653 425.526,484.153 416.5,483C 413.577,480.955 410.743,478.788 408,476.5C 407.667,483.833 407.333,491.167 407,498.5C 404.441,501.349 401.274,502.183 397.5,501C 396.299,500.097 395.465,498.931 395,497.5C 394.667,490.5 394.333,483.5 394,476.5C 390.707,480.143 386.707,482.476 382,483.5C 376.447,482.938 374.447,479.938 376,474.5C 381.819,469.592 387.819,464.925 394,460.5C 394.833,448.819 394.666,437.152 393.5,425.5C 384.167,430.833 374.833,436.167 365.5,441.5C 363.646,447.989 362.479,454.655 362,461.5C 361.837,463.676 361.004,465.509 359.5,467C 353.993,468.895 350.326,467.228 348.5,462C 349.167,458.333 349.833,454.667 350.5,451C 344.538,453.151 338.871,456.151 333.5,460C 323.967,461.261 321.301,457.594 325.5,449C 331.5,445.667 337.5,442.333 343.5,439C 339.218,436.613 335.051,434.113 331,431.5C 329.382,424.205 332.215,421.038 339.5,422C 345.621,424.56 351.621,427.394 357.5,430.5C 367.331,425.086 376.998,419.419 386.5,413.5C 377.669,407.583 368.669,401.917 359.5,396.5C 353.833,399 348.167,401.5 342.5,404C 333.752,405.254 330.919,401.754 334,393.5C 337.879,391.811 341.712,389.978 345.5,388C 339.085,383.709 332.585,379.542 326,375.5C 323.01,367.317 325.844,363.817 334.5,365C 340.333,368.833 346.167,372.667 352,376.5C 352.622,372.971 352.455,369.471 351.5,366C 352.754,359.674 356.421,357.841 362.5,360.5C 363.934,362.22 364.767,364.22 365,366.5C 365.391,372.863 366.058,379.197 367,385.5C 376,391.167 385,396.833 394,402.5C 394.667,390.167 394.667,377.833 394,365.5C 388.587,361.543 383.087,357.71 377.5,354C 373.831,345.664 376.498,341.997 385.5,343C 388.333,345.167 391.167,347.333 394,349.5C 394.333,342.833 394.667,336.167 395,329.5C 396.5,327.531 398.333,326.198 400.5,325.5 Z"/></g>
<g><path style="opacity:0.925" fill="#284267" d="M 238.5,449.5 C 249.649,448.491 254.482,453.491 253,464.5C 248.672,471.696 242.838,473.196 235.5,469C 229.629,461.397 230.629,454.897 238.5,449.5 Z"/></g>
<g><path style="opacity:0.941" fill="#284267" d="M 49.5,477.5 C 63.0012,477.159 67.8345,483.492 64,496.5C 59.8604,501.211 54.6938,502.711 48.5,501C 41.9298,497.345 39.7632,491.845 42,484.5C 43.7424,481.254 46.2424,478.921 49.5,477.5 Z"/></g>
</svg>
