<?xml version="1.0" encoding="UTF-8"?>
<!DOCTYPE svg PUBLIC "-//W3C//DTD SVG 1.1//EN" "http://www.w3.org/Graphics/SVG/1.1/DTD/svg11.dtd">
<svg xmlns="http://www.w3.org/2000/svg" version="1.1" width="724px" height="637px" style="shape-rendering:geometricPrecision; text-rendering:geometricPrecision; image-rendering:optimizeQuality; fill-rule:evenodd; clip-rule:evenodd" xmlns:xlink="http://www.w3.org/1999/xlink">
<g><path style="opacity:0.451" fill="#fee9b5" d="M 356.5,-0.5 C 359.833,-0.5 363.167,-0.5 366.5,-0.5C 366.833,0.166667 367.167,0.833333 367.5,1.5C 363.5,0.166667 359.5,0.166667 355.5,1.5C 355.833,0.833333 356.167,0.166667 356.5,-0.5 Z"/></g>
<g><path style="opacity:1" fill="#fbc225" d="M 367.5,1.5 C 368.5,1.83333 369.167,2.5 369.5,3.5C 369.932,4.70951 370.599,5.70951 371.5,6.5C 372.653,25.4267 372.82,44.4267 372,63.5C 371.768,64.7375 371.268,65.7375 370.5,66.5C 369.167,67.1667 368.167,68.1667 367.5,69.5C 364.214,70.2071 360.881,70.5405 357.5,70.5C 356.508,70.6716 355.842,70.3382 355.5,69.5C 354.154,67.4632 352.82,65.4632 351.5,63.5C 350.175,44.5978 350.175,25.5978 351.5,6.5C 352.401,5.70951 353.068,4.70951 353.5,3.5C 353.833,2.5 354.5,1.83333 355.5,1.5C 359.5,0.166667 363.5,0.166667 367.5,1.5 Z"/></g>
<g><path style="opacity:0.031" fill="#fde2b9" d="M 369.5,3.5 C 370.376,3.36912 371.043,3.70245 371.5,4.5C 372.55,5.42878 372.55,6.09545 371.5,6.5C 370.599,5.70951 369.932,4.70951 369.5,3.5 Z"/></g>
<g><path style="opacity:0.451" fill="#fde1b1" d="M 353.5,3.5 C 353.068,4.70951 352.401,5.70951 351.5,6.5C 351.062,6.56544 350.728,6.39877 350.5,6C 351.078,4.58296 352.078,3.74962 353.5,3.5 Z"/></g>
<g><path style="opacity:0.075" fill="#feeac8" d="M 203.5,41.5 C 206.304,40.3622 209.304,40.1955 212.5,41C 213.056,41.3826 213.389,41.8826 213.5,42.5C 210.236,41.6758 206.902,41.3424 203.5,41.5 Z"/></g>
<g><path style="opacity:0.29" fill="#fde9c2" d="M 519.5,41.5 C 516.098,41.3424 512.764,41.6758 509.5,42.5C 509.611,41.8826 509.944,41.3826 510.5,41C 513.696,40.1955 516.696,40.3622 519.5,41.5 Z"/></g>
<g><path style="opacity:1" fill="#fabf11" d="M 203.5,41.5 C 206.902,41.3424 210.236,41.6758 213.5,42.5C 214.5,42.8333 215.167,43.5 215.5,44.5C 215.427,46.0269 216.094,47.0269 217.5,47.5C 218.338,47.8417 218.672,48.5084 218.5,49.5C 218.75,51.674 219.75,53.3406 221.5,54.5C 221.75,56.674 222.75,58.3406 224.5,59.5C 225.674,60.5137 226.34,61.847 226.5,63.5C 226.427,65.0269 227.094,66.0269 228.5,66.5C 228.75,68.674 229.75,70.3406 231.5,71.5C 231.66,73.153 232.326,74.4863 233.5,75.5C 234.338,75.8417 234.672,76.5084 234.5,77.5C 234.427,79.0269 235.094,80.0269 236.5,80.5C 237.338,80.8417 237.672,81.5084 237.5,82.5C 237.427,84.0269 238.094,85.0269 239.5,85.5C 239.5,85.8333 239.5,86.1667 239.5,86.5C 239.932,87.7095 240.599,88.7095 241.5,89.5C 242.338,89.8417 242.672,90.5084 242.5,91.5C 242.54,94.8806 242.207,98.2139 241.5,101.5C 240.128,102.512 238.795,103.512 237.5,104.5C 233.187,105.01 229.187,104.343 225.5,102.5C 224.833,102.5 224.5,102.167 224.5,101.5C 223.66,99.1475 222.326,97.1475 220.5,95.5C 219.862,93.54 219.862,91.7067 220.5,90C 219.552,89.5172 218.552,89.3505 217.5,89.5C 216.89,87.5659 215.89,85.8993 214.5,84.5C 213.662,84.1583 213.328,83.4916 213.5,82.5C 213.068,81.2905 212.401,80.2905 211.5,79.5C 210.662,79.1583 210.328,78.4916 210.5,77.5C 210.25,75.326 209.25,73.6594 207.5,72.5C 206.263,71.0351 205.263,69.3684 204.5,67.5C 204.727,65.0672 203.727,63.4006 201.5,62.5C 200.662,62.1583 200.328,61.4916 200.5,60.5C 200.573,58.9731 199.906,57.9731 198.5,57.5C 198.294,53.1018 198.627,48.7685 199.5,44.5C 200.262,42.7376 201.596,41.7376 203.5,41.5 Z"/></g>
<g><path style="opacity:1" fill="#fac018" d="M 519.5,41.5 C 522.849,42.6836 525.015,45.017 526,48.5C 526.781,51.8166 526.281,54.8166 524.5,57.5C 523.094,57.9731 522.427,58.9731 522.5,60.5C 522.672,61.4916 522.338,62.1583 521.5,62.5C 519.273,63.4006 518.273,65.0672 518.5,67.5C 517.737,69.3684 516.737,71.0351 515.5,72.5C 513.75,73.6594 512.75,75.326 512.5,77.5C 511.263,78.9649 510.263,80.6316 509.5,82.5C 509.34,84.153 508.674,85.4863 507.5,86.5C 506.094,86.9731 505.427,87.9731 505.5,89.5C 504.325,89.281 503.325,89.6143 502.5,90.5C 503.127,91.4168 503.461,92.4168 503.5,93.5C 503.672,94.4916 503.338,95.1583 502.5,95.5C 500.478,97.5313 498.811,99.8646 497.5,102.5C 497.5,103.167 497.167,103.5 496.5,103.5C 492.936,104.423 489.269,104.756 485.5,104.5C 485.167,104.5 484.833,104.5 484.5,104.5C 483.833,103.167 482.833,102.167 481.5,101.5C 480.028,99.8825 479.361,97.8825 479.5,95.5C 479.511,93.9549 479.844,92.6216 480.5,91.5C 481.89,90.1007 482.89,88.4341 483.5,86.5C 483.5,86.1667 483.5,85.8333 483.5,85.5C 484.906,85.0269 485.573,84.0269 485.5,82.5C 485.328,81.5084 485.662,80.8417 486.5,80.5C 487.906,80.0269 488.573,79.0269 488.5,77.5C 488.328,76.5084 488.662,75.8417 489.5,75.5C 490.674,74.4863 491.34,73.153 491.5,71.5C 493.955,69.3678 495.621,66.7012 496.5,63.5C 496.66,61.847 497.326,60.5137 498.5,59.5C 500.25,58.3406 501.25,56.674 501.5,54.5C 503.25,53.3406 504.25,51.674 504.5,49.5C 504.328,48.5084 504.662,47.8417 505.5,47.5C 506.906,47.0269 507.573,46.0269 507.5,44.5C 507.833,43.5 508.5,42.8333 509.5,42.5C 512.764,41.6758 516.098,41.3424 519.5,41.5 Z"/></g>
<g><path style="opacity:0.031" fill="#fee5be" d="M 215.5,44.5 C 217.048,44.8212 217.715,45.8212 217.5,47.5C 216.094,47.0269 215.427,46.0269 215.5,44.5 Z"/></g>
<g><path style="opacity:0.353" fill="#fee6af" d="M 507.5,44.5 C 507.573,46.0269 506.906,47.0269 505.5,47.5C 505.427,45.9731 506.094,44.9731 507.5,44.5 Z"/></g>
<g><path style="opacity:0.929" fill="#feda81" d="M 199.5,44.5 C 198.627,48.7685 198.294,53.1018 198.5,57.5C 195.654,52.9116 195.988,48.5783 199.5,44.5 Z"/></g>
<g><path style="opacity:0.031" fill="#fee5b4" d="M 218.5,49.5 C 220.408,50.4856 221.408,52.1523 221.5,54.5C 219.75,53.3406 218.75,51.674 218.5,49.5 Z"/></g>
<g><path style="opacity:0.29" fill="#fde5ad" d="M 504.5,49.5 C 504.25,51.674 503.25,53.3406 501.5,54.5C 501.75,52.326 502.75,50.6594 504.5,49.5 Z"/></g>
<g><path style="opacity:0.353" fill="#fdeec9" d="M 501.5,54.5 C 501.25,56.674 500.25,58.3406 498.5,59.5C 498.75,57.326 499.75,55.6594 501.5,54.5 Z"/></g>
<g><path style="opacity:0.141" fill="#feedcb" d="M 221.5,54.5 C 223.25,55.6594 224.25,57.326 224.5,59.5C 222.75,58.3406 221.75,56.674 221.5,54.5 Z"/></g>
<g><path style="opacity:0.075" fill="#feecd1" d="M 198.5,57.5 C 199.906,57.9731 200.573,58.9731 200.5,60.5C 198.952,60.1788 198.285,59.1788 198.5,57.5 Z"/></g>
<g><path style="opacity:0.075" fill="#feeed5" d="M 524.5,57.5 C 524.573,59.0269 523.906,60.0269 522.5,60.5C 522.427,58.9731 523.094,57.9731 524.5,57.5 Z"/></g>
<g><path style="opacity:0.031" fill="#fee6b7" d="M 201.5,62.5 C 203.727,63.4006 204.727,65.0672 204.5,67.5C 203.11,66.1007 202.11,64.4341 201.5,62.5 Z"/></g>
<g><path style="opacity:0.031" fill="#fee6b7" d="M 521.5,62.5 C 520.89,64.4341 519.89,66.1007 518.5,67.5C 518.273,65.0672 519.273,63.4006 521.5,62.5 Z"/></g>
<g><path style="opacity:0.353" fill="#fde7b3" d="M 226.5,63.5 C 227.906,63.9731 228.573,64.9731 228.5,66.5C 227.094,66.0269 226.427,65.0269 226.5,63.5 Z"/></g>
<g><path style="opacity:0.141" fill="#fee8c2" d="M 228.5,66.5 C 230.25,67.6594 231.25,69.326 231.5,71.5C 229.75,70.3406 228.75,68.674 228.5,66.5 Z"/></g>
<g><path style="opacity:0.031" fill="#fee8bc" d="M 351.5,63.5 C 352.82,65.4632 354.154,67.4632 355.5,69.5C 352.708,68.6082 351.375,66.6082 351.5,63.5 Z"/></g>
<g><path style="opacity:0.031" fill="#feeacb" d="M 370.5,66.5 C 370.5,68.5 369.5,69.5 367.5,69.5C 368.167,68.1667 369.167,67.1667 370.5,66.5 Z"/></g>
<g><path style="opacity:0.141" fill="#feeac2" d="M 496.5,63.5 C 495.621,66.7012 493.955,69.3678 491.5,71.5C 492.454,68.2485 494.12,65.5819 496.5,63.5 Z"/></g>
<g><path style="opacity:0.353" fill="#fdeab9" d="M 367.5,69.5 C 365.883,70.9723 363.883,71.639 361.5,71.5C 359.955,71.4892 358.622,71.1558 357.5,70.5C 360.881,70.5405 364.214,70.2071 367.5,69.5 Z"/></g>
<g><path style="opacity:0.075" fill="#feeccd" d="M 231.5,71.5 C 233.104,72.287 233.771,73.6203 233.5,75.5C 232.326,74.4863 231.66,73.153 231.5,71.5 Z"/></g>
<g><path style="opacity:0.353" fill="#fdeac7" d="M 491.5,71.5 C 491.34,73.153 490.674,74.4863 489.5,75.5C 489.229,73.6203 489.896,72.287 491.5,71.5 Z"/></g>
<g><path style="opacity:0.29" fill="#fde8b3" d="M 207.5,72.5 C 209.25,73.6594 210.25,75.326 210.5,77.5C 209.282,76.2689 207.949,75.1022 206.5,74C 207.056,73.6174 207.389,73.1174 207.5,72.5 Z"/></g>
<g><path style="opacity:0.29" fill="#fde8b2" d="M 515.5,72.5 C 515.25,74.674 514.25,76.3406 512.5,77.5C 512.75,75.326 513.75,73.6594 515.5,72.5 Z"/></g>
<g><path style="opacity:0.353" fill="#fcebba" d="M 234.5,77.5 C 235.906,77.9731 236.573,78.9731 236.5,80.5C 235.094,80.0269 234.427,79.0269 234.5,77.5 Z"/></g>
<g><path style="opacity:0.353" fill="#fdebb4" d="M 488.5,77.5 C 488.573,79.0269 487.906,80.0269 486.5,80.5C 486.427,78.9731 487.094,77.9731 488.5,77.5 Z"/></g>
<g><path style="opacity:0.031" fill="#fee5be" d="M 512.5,77.5 C 512.741,80.0336 511.741,81.7002 509.5,82.5C 510.263,80.6316 511.263,78.9649 512.5,77.5 Z"/></g>
<g><path style="opacity:0.212" fill="#ffedd1" d="M 211.5,79.5 C 212.401,80.2905 213.068,81.2905 213.5,82.5C 211.952,82.1788 211.285,81.1788 211.5,79.5 Z"/></g>
<g><path style="opacity:0.353" fill="#fde5b7" d="M 237.5,82.5 C 239.35,83.2418 240.016,84.2418 239.5,85.5C 238.094,85.0269 237.427,84.0269 237.5,82.5 Z"/></g>
<g><path style="opacity:0.353" fill="#fde5b7" d="M 485.5,82.5 C 485.573,84.0269 484.906,85.0269 483.5,85.5C 482.984,84.2418 483.65,83.2418 485.5,82.5 Z"/></g>
<g><path style="opacity:0.141" fill="#fdeac0" d="M 214.5,84.5 C 215.89,85.8993 216.89,87.5659 217.5,89.5C 215.273,88.5994 214.273,86.9328 214.5,84.5 Z"/></g>
<g><path style="opacity:0.031" fill="#fde2b1" d="M 239.5,86.5 C 241.048,86.8212 241.715,87.8212 241.5,89.5C 240.599,88.7095 239.932,87.7095 239.5,86.5 Z"/></g>
<g><path style="opacity:0.141" fill="#feedc3" d="M 507.5,86.5 C 507.573,88.0269 506.906,89.0269 505.5,89.5C 505.427,87.9731 506.094,86.9731 507.5,86.5 Z"/></g>
<g><path style="opacity:0.553" fill="#fde199" d="M 483.5,86.5 C 482.89,88.4341 481.89,90.1007 480.5,91.5C 480.273,89.0672 481.273,87.4006 483.5,86.5 Z"/></g>
<g><path style="opacity:1" fill="#ffd87e" d="M 217.5,89.5 C 218.552,89.3505 219.552,89.5172 220.5,90C 219.862,91.7067 219.862,93.54 220.5,95.5C 218.992,93.8185 217.992,91.8185 217.5,89.5 Z"/></g>
<g><path style="opacity:1" fill="#ffd16a" d="M 505.5,89.5 C 505.34,91.153 504.674,92.4863 503.5,93.5C 503.461,92.4168 503.127,91.4168 502.5,90.5C 503.325,89.6143 504.325,89.281 505.5,89.5 Z"/></g>
<g><path style="opacity:0.353" fill="#fdebbb" d="M 242.5,91.5 C 243.156,92.6216 243.489,93.9549 243.5,95.5C 243.639,97.8825 242.972,99.8825 241.5,101.5C 242.207,98.2139 242.54,94.8806 242.5,91.5 Z"/></g>
<g><path style="opacity:0.075" fill="#feeac3" d="M 220.5,95.5 C 222.326,97.1475 223.66,99.1475 224.5,101.5C 222.178,100.198 220.845,98.1979 220.5,95.5 Z"/></g>
<g><path style="opacity:0.031" fill="#fde7bb" d="M 502.5,95.5 C 501.931,98.7191 500.264,101.052 497.5,102.5C 498.811,99.8646 500.478,97.5313 502.5,95.5 Z"/></g>
<g><path style="opacity:0.031" fill="#ffe8cb" d="M 481.5,101.5 C 482.833,102.167 483.833,103.167 484.5,104.5C 482.5,104.5 481.5,103.5 481.5,101.5 Z"/></g>
<g><path style="opacity:0.075" fill="#ffeace" d="M 241.5,101.5 C 241.306,103.912 239.973,104.912 237.5,104.5C 238.795,103.512 240.128,102.512 241.5,101.5 Z"/></g>
<g><path style="opacity:0.639" fill="#fde19d" d="M 225.5,102.5 C 229.187,104.343 233.187,105.01 237.5,104.5C 237.217,105.289 236.717,105.956 236,106.5C 232.924,105.712 229.758,105.212 226.5,105C 225.748,104.329 225.414,103.496 225.5,102.5 Z"/></g>
<g><path style="opacity:0.639" fill="#fce095" d="M 496.5,103.5 C 495.129,104.787 493.295,105.453 491,105.5C 488.967,105.494 487.134,105.161 485.5,104.5C 489.269,104.756 492.936,104.423 496.5,103.5 Z"/></g>
<g><path style="opacity:0.11" fill="#fad07a" d="M 352.5,109.5 C 348.148,110.246 343.648,110.913 339,111.5C 338.235,111.43 337.735,111.097 337.5,110.5C 342.305,109.513 347.305,109.179 352.5,109.5 Z"/></g>
<g><path style="opacity:1" fill="#f69b1f" d="M 370.5,109.5 C 384.077,111.149 397.744,113.149 411.5,115.5C 413.216,115.629 414.883,115.962 416.5,116.5C 419.505,118.277 422.838,119.277 426.5,119.5C 436.816,122.165 446.483,126.165 455.5,131.5C 457.336,133.588 459.669,134.921 462.5,135.5C 463.609,135.557 464.609,135.89 465.5,136.5C 465.821,138.048 466.821,138.715 468.5,138.5C 472.434,140.439 476.101,142.772 479.5,145.5C 480.539,147.531 482.205,148.864 484.5,149.5C 502.812,161.812 518.145,177.145 530.5,195.5C 530.427,197.027 531.094,198.027 532.5,198.5C 538.419,205.325 543.086,212.992 546.5,221.5C 547.326,224.485 548.659,227.151 550.5,229.5C 552.951,232.74 554.618,236.407 555.5,240.5C 555.229,242.38 555.896,243.713 557.5,244.5C 558.964,248.019 559.964,251.686 560.5,255.5C 560.345,258.716 561.345,261.383 563.5,263.5C 565.85,270.609 567.184,277.943 567.5,285.5C 569.718,305.119 570.051,324.786 568.5,344.5C 568.621,348.825 567.954,352.991 566.5,357C 566.833,357.333 567.167,357.667 567.5,358C 566.891,359.948 566.224,361.782 565.5,363.5C 563.261,368.894 561.594,374.561 560.5,380.5C 558.872,389.404 555.872,397.737 551.5,405.5C 549.127,407.579 547.794,410.246 547.5,413.5C 534.322,439.021 516.655,461.021 494.5,479.5C 492.5,479.5 491.5,480.5 491.5,482.5C 477.422,493.542 462.089,502.542 445.5,509.5C 442.759,509.707 440.426,510.707 438.5,512.5C 436.703,513.73 434.703,514.396 432.5,514.5C 427.216,515.595 422.216,517.261 417.5,519.5C 415.958,520.301 414.292,520.634 412.5,520.5C 401.673,522.302 391.006,524.302 380.5,526.5C 369.019,527.754 357.686,527.754 346.5,526.5C 343.695,525.681 340.695,525.181 337.5,525C 414.729,513.135 470.229,471.968 504,401.5C 535.606,318.931 523.106,244.264 466.5,177.5C 435.542,144.356 397.876,123.189 353.5,114C 345.565,113.045 337.898,112.212 330.5,111.5C 332.607,110.532 334.941,110.198 337.5,110.5C 337.735,111.097 338.235,111.43 339,111.5C 343.648,110.913 348.148,110.246 352.5,109.5C 358.469,108.207 364.469,108.207 370.5,109.5 Z"/></g>
<g><path style="opacity:1" fill="#fabe03" d="M 330.5,111.5 C 337.898,112.212 345.565,113.045 353.5,114C 397.876,123.189 435.542,144.356 466.5,177.5C 523.106,244.264 535.606,318.931 504,401.5C 470.229,471.968 414.729,513.135 337.5,525C 340.695,525.181 343.695,525.681 346.5,526.5C 342.958,526.813 339.625,526.479 336.5,525.5C 332.382,524.291 328.049,523.624 323.5,523.5C 316.92,522.993 310.92,521.66 305.5,519.5C 303.485,518.076 301.152,517.41 298.5,517.5C 287.288,514.323 276.621,509.99 266.5,504.5C 266.027,503.094 265.027,502.427 263.5,502.5C 259.708,500.77 256.042,498.77 252.5,496.5C 252.027,495.094 251.027,494.427 249.5,494.5C 245.692,492.427 242.026,490.094 238.5,487.5C 219.088,473.422 202.755,456.422 189.5,436.5C 187.954,434.118 187.287,431.451 187.5,428.5C 186.5,428.5 185.5,428.5 184.5,428.5C 184.5,426.833 184.5,425.167 184.5,423.5C 182.784,423.371 181.117,423.038 179.5,422.5C 178.427,419.356 177.093,416.356 175.5,413.5C 175.206,410.246 173.873,407.579 171.5,405.5C 168.715,400.812 166.715,395.812 165.5,390.5C 165.598,388.447 164.931,386.78 163.5,385.5C 162.492,382.156 161.492,378.823 160.5,375.5C 160.416,371.163 159.416,367.163 157.5,363.5C 152.705,342.991 151.371,321.991 153.5,300.5C 154.202,296.375 155.535,292.375 157.5,288.5C 156.593,285.579 156.26,282.579 156.5,279.5C 156.5,278.833 156.5,278.167 156.5,277.5C 158.419,273.143 159.419,268.477 159.5,263.5C 161.466,256.597 163.799,249.93 166.5,243.5C 168.592,240.912 169.925,237.912 170.5,234.5C 170.5,234.167 170.5,233.833 170.5,233.5C 172.293,231.574 173.293,229.241 173.5,226.5C 196.097,180.253 231.43,146.587 279.5,125.5C 281.684,126.108 283.684,125.441 285.5,123.5C 299.995,117.732 314.995,113.732 330.5,111.5 Z"/></g>
<g><path style="opacity:0.522" fill="#f9c568" d="M 370.5,109.5 C 384.619,109.278 398.285,111.278 411.5,115.5C 397.744,113.149 384.077,111.149 370.5,109.5 Z"/></g>
<g><path style="opacity:0.553" fill="#fbd688" d="M 416.5,116.5 C 420.162,116.723 423.495,117.723 426.5,119.5C 422.838,119.277 419.505,118.277 416.5,116.5 Z"/></g>
<g><path style="opacity:0.22" fill="#fbd57f" d="M 285.5,123.5 C 283.684,125.441 281.684,126.108 279.5,125.5C 281.297,124.27 283.297,123.604 285.5,123.5 Z"/></g>
<g><path style="opacity:0.365" fill="#f8c668" d="M 455.5,131.5 C 458.331,132.079 460.664,133.412 462.5,135.5C 459.669,134.921 457.336,133.588 455.5,131.5 Z"/></g>
<g><path style="opacity:0.031" fill="#fed49e" d="M 465.5,136.5 C 466.71,136.932 467.71,137.599 468.5,138.5C 466.821,138.715 465.821,138.048 465.5,136.5 Z"/></g>
<g><path style="opacity:0.918" fill="#fcc878" d="M 479.5,145.5 C 481.754,146.124 483.421,147.457 484.5,149.5C 482.205,148.864 480.539,147.531 479.5,145.5 Z"/></g>
<g><path style="opacity:0.639" fill="#fde5ad" d="M 102.5,156.5 C 98.6995,154.857 94.6995,154.19 90.5,154.5C 91.8775,153.766 93.3775,153.099 95,152.5C 98.005,153.027 100.505,154.36 102.5,156.5 Z"/></g>
<g><path style="opacity:0.353" fill="#fde9b5" d="M 632.5,154.5 C 628.3,154.19 624.3,154.857 620.5,156.5C 622.495,154.36 624.995,153.027 628,152.5C 629.622,153.099 631.122,153.766 632.5,154.5 Z"/></g>
<g><path style="opacity:0.714" fill="#fee193" d="M 90.5,154.5 C 89.7377,156.262 88.4044,157.262 86.5,157.5C 87.2623,155.738 88.5956,154.738 90.5,154.5 Z"/></g>
<g><path style="opacity:1" fill="#fac019" d="M 90.5,154.5 C 94.6995,154.19 98.6995,154.857 102.5,156.5C 103.514,157.674 104.847,158.34 106.5,158.5C 108.629,160.95 111.296,162.617 114.5,163.5C 116.153,163.66 117.486,164.326 118.5,165.5C 119.659,167.25 121.326,168.25 123.5,168.5C 123.973,169.906 124.973,170.573 126.5,170.5C 130.655,171.742 134.322,173.742 137.5,176.5C 137.973,177.906 138.973,178.573 140.5,178.5C 141.492,178.328 142.158,178.662 142.5,179.5C 144.142,180.803 145.809,182.136 147.5,183.5C 150.167,187.5 150.167,191.5 147.5,195.5C 146.167,196.167 145.167,197.167 144.5,198.5C 141.778,200.673 138.778,201.006 135.5,199.5C 134.791,198.596 133.791,198.263 132.5,198.5C 130.853,196.674 128.853,195.34 126.5,194.5C 124.181,194.008 122.181,193.008 120.5,191.5C 120.027,190.094 119.027,189.427 117.5,189.5C 116.341,187.75 114.674,186.75 112.5,186.5C 111.71,185.599 110.71,184.932 109.5,184.5C 109.167,184.5 108.833,184.5 108.5,184.5C 108.027,183.094 107.027,182.427 105.5,182.5C 103.847,182.34 102.514,181.674 101.5,180.5C 99.8816,178.684 97.8816,177.351 95.5,176.5C 93.847,176.34 92.5137,175.674 91.5,174.5C 91.0269,173.094 90.0269,172.427 88.5,172.5C 87.8333,171.167 86.8333,170.167 85.5,169.5C 85.5,168.5 85.5,167.5 85.5,166.5C 85.3677,163.43 85.701,160.43 86.5,157.5C 88.4044,157.262 89.7377,156.262 90.5,154.5 Z"/></g>
<g><path style="opacity:1" fill="#fabf14" d="M 632.5,154.5 C 634.062,154.733 635.395,155.4 636.5,156.5C 636.5,156.833 636.5,157.167 636.5,157.5C 637.299,160.43 637.632,163.43 637.5,166.5C 637.5,167.5 637.5,168.5 637.5,169.5C 636.167,170.167 635.167,171.167 634.5,172.5C 632.973,172.427 631.973,173.094 631.5,174.5C 629.973,174.427 628.973,175.094 628.5,176.5C 625.669,177.079 623.336,178.412 621.5,180.5C 620.486,181.674 619.153,182.34 617.5,182.5C 615.566,183.11 613.899,184.11 612.5,185.5C 612.158,186.338 611.492,186.672 610.5,186.5C 608.326,186.75 606.659,187.75 605.5,189.5C 605.027,190.906 604.027,191.573 602.5,191.5C 600.847,191.66 599.514,192.326 598.5,193.5C 598.158,194.338 597.492,194.672 596.5,194.5C 594.147,195.34 592.147,196.674 590.5,198.5C 589.209,198.263 588.209,198.596 587.5,199.5C 584.222,201.006 581.222,200.673 578.5,198.5C 577.154,196.463 575.82,194.463 574.5,192.5C 574.5,190.5 574.5,188.5 574.5,186.5C 574.263,185.209 574.596,184.209 575.5,183.5C 578.283,181.465 580.95,179.465 583.5,177.5C 585.752,176.667 587.919,176.667 590,177.5C 590.366,175.548 591.199,173.882 592.5,172.5C 592.842,171.662 593.508,171.328 594.5,171.5C 596.674,171.25 598.341,170.25 599.5,168.5C 601.674,168.25 603.341,167.25 604.5,165.5C 605.514,164.326 606.847,163.66 608.5,163.5C 611.704,162.617 614.371,160.95 616.5,158.5C 618.153,158.34 619.486,157.674 620.5,156.5C 624.3,154.857 628.3,154.19 632.5,154.5 Z"/></g>
<g><path style="opacity:0.031" fill="#fedfbe" d="M 636.5,155.5 C 637.833,156.167 637.833,156.167 636.5,155.5 Z"/></g>
<g><path style="opacity:0.075" fill="#fee7c2" d="M 102.5,156.5 C 104.38,156.229 105.713,156.896 106.5,158.5C 104.847,158.34 103.514,157.674 102.5,156.5 Z"/></g>
<g><path style="opacity:0.353" fill="#fdeac7" d="M 620.5,156.5 C 619.486,157.674 618.153,158.34 616.5,158.5C 617.287,156.896 618.62,156.229 620.5,156.5 Z"/></g>
<g><path style="opacity:0.141" fill="#fde6b3" d="M 616.5,158.5 C 614.371,160.95 611.704,162.617 608.5,163.5C 610.629,161.05 613.296,159.383 616.5,158.5 Z"/></g>
<g><path style="opacity:0.075" fill="#feeed5" d="M 84.5,161.5 C 84.2155,163.415 84.5489,165.081 85.5,166.5C 85.5,167.5 85.5,168.5 85.5,169.5C 83.4162,167.007 83.0829,164.34 84.5,161.5 Z"/></g>
<g><path style="opacity:0.29" fill="#fee4b2" d="M 106.5,158.5 C 109.704,159.383 112.371,161.05 114.5,163.5C 111.296,162.617 108.629,160.95 106.5,158.5 Z"/></g>
<g><path style="opacity:0.075" fill="#feedd2" d="M 639.5,163.5 C 639.741,165.898 639.074,167.898 637.5,169.5C 637.5,168.5 637.5,167.5 637.5,166.5C 638.167,165.5 638.833,164.5 639.5,163.5 Z"/></g>
<g><path style="opacity:0.776" fill="#fbd66a" d="M 86.5,157.5 C 85.701,160.43 85.3677,163.43 85.5,166.5C 84.5489,165.081 84.2155,163.415 84.5,161.5C 84.2291,159.62 84.8958,158.287 86.5,157.5 Z"/></g>
<g><path style="opacity:0.776" fill="#fbd672" d="M 636.5,157.5 C 638.245,159.033 639.245,161.033 639.5,163.5C 638.833,164.5 638.167,165.5 637.5,166.5C 637.632,163.43 637.299,160.43 636.5,157.5 Z"/></g>
<g><path style="opacity:0.075" fill="#feefd1" d="M 118.5,165.5 C 120.674,165.75 122.341,166.75 123.5,168.5C 121.326,168.25 119.659,167.25 118.5,165.5 Z"/></g>
<g><path style="opacity:0.141" fill="#feedc9" d="M 604.5,165.5 C 603.341,167.25 601.674,168.25 599.5,168.5C 600.659,166.75 602.326,165.75 604.5,165.5 Z"/></g>
<g><path style="opacity:0.29" fill="#fce3aa" d="M 123.5,168.5 C 125.027,168.427 126.027,169.094 126.5,170.5C 124.973,170.573 123.973,169.906 123.5,168.5 Z"/></g>
<g><path style="opacity:0.29" fill="#fde5ad" d="M 599.5,168.5 C 598.341,170.25 596.674,171.25 594.5,171.5C 595.659,169.75 597.326,168.75 599.5,168.5 Z"/></g>
<g><path style="opacity:0.031" fill="#fde4b6" d="M 85.5,169.5 C 86.8333,170.167 87.8333,171.167 88.5,172.5C 86.5,172.5 85.5,171.5 85.5,169.5 Z"/></g>
<g><path style="opacity:0.141" fill="#fee8be" d="M 637.5,169.5 C 637.437,172.195 636.437,173.195 634.5,172.5C 635.167,171.167 636.167,170.167 637.5,169.5 Z"/></g>
<g><path style="opacity:0.353" fill="#fdebbc" d="M 88.5,172.5 C 90.0269,172.427 91.0269,173.094 91.5,174.5C 89.9731,174.573 88.9731,173.906 88.5,172.5 Z"/></g>
<g><path style="opacity:0.141" fill="#fdebbc" d="M 634.5,172.5 C 634.027,173.906 633.027,174.573 631.5,174.5C 631.973,173.094 632.973,172.427 634.5,172.5 Z"/></g>
<g><path style="opacity:1" fill="#ffd777" d="M 592.5,172.5 C 591.199,173.882 590.366,175.548 590,177.5C 587.919,176.667 585.752,176.667 583.5,177.5C 586.331,175.583 589.331,173.917 592.5,172.5 Z"/></g>
<g><path style="opacity:0.031" fill="#fee7c2" d="M 631.5,174.5 C 631.027,175.906 630.027,176.573 628.5,176.5C 628.973,175.094 629.973,174.427 631.5,174.5 Z"/></g>
<g><path style="opacity:0.141" fill="#feecc4" d="M 137.5,176.5 C 139.027,176.427 140.027,177.094 140.5,178.5C 138.973,178.573 137.973,177.906 137.5,176.5 Z"/></g>
<g><path style="opacity:0.031" fill="#fee7c1" d="M 95.5,176.5 C 97.8816,177.351 99.8816,178.684 101.5,180.5C 98.733,180.13 96.733,178.796 95.5,176.5 Z"/></g>
<g><path style="opacity:0.031" fill="#fee8c9" d="M 142.5,179.5 C 145.367,179.369 147.033,180.703 147.5,183.5C 145.809,182.136 144.142,180.803 142.5,179.5 Z"/></g>
<g><path style="opacity:0.031" fill="#ffe4b7" d="M 583.5,177.5 C 580.95,179.465 578.283,181.465 575.5,183.5C 576.973,180.079 579.639,178.079 583.5,177.5 Z"/></g>
<g><path style="opacity:0.031" fill="#fee4bd" d="M 628.5,176.5 C 626.664,178.588 624.331,179.921 621.5,180.5C 623.336,178.412 625.669,177.079 628.5,176.5 Z"/></g>
<g><path style="opacity:0.212" fill="#ffedd0" d="M 105.5,182.5 C 107.027,182.427 108.027,183.094 108.5,184.5C 106.821,184.715 105.821,184.048 105.5,182.5 Z"/></g>
<g><path style="opacity:0.075" fill="#ffeccd" d="M 617.5,182.5 C 616.599,184.727 614.933,185.727 612.5,185.5C 613.899,184.11 615.566,183.11 617.5,182.5 Z"/></g>
<g><path style="opacity:0.031" fill="#fde6bc" d="M 109.5,184.5 C 110.71,184.932 111.71,185.599 112.5,186.5C 110.821,186.715 109.821,186.048 109.5,184.5 Z"/></g>
<g><path style="opacity:0.29" fill="#fde5ad" d="M 112.5,186.5 C 114.674,186.75 116.341,187.75 117.5,189.5C 115.326,189.25 113.659,188.25 112.5,186.5 Z"/></g>
<g><path style="opacity:0.212" fill="#fff2d8" d="M 574.5,186.5 C 574.5,188.5 574.5,190.5 574.5,192.5C 573.761,192.631 573.094,192.464 572.5,192C 573.109,190.052 573.776,188.218 574.5,186.5 Z"/></g>
<g><path style="opacity:0.29" fill="#fce5a9" d="M 610.5,186.5 C 609.341,188.25 607.674,189.25 605.5,189.5C 606.659,187.75 608.326,186.75 610.5,186.5 Z"/></g>
<g><path style="opacity:0.141" fill="#ffecc6" d="M 117.5,189.5 C 119.027,189.427 120.027,190.094 120.5,191.5C 118.973,191.573 117.973,190.906 117.5,189.5 Z"/></g>
<g><path style="opacity:0.031" fill="#fee7c6" d="M 602.5,191.5 C 601.713,193.104 600.38,193.771 598.5,193.5C 599.514,192.326 600.847,191.66 602.5,191.5 Z"/></g>
<g><path style="opacity:0.29" fill="#feeac1" d="M 126.5,194.5 C 128.853,195.34 130.853,196.674 132.5,198.5C 129.802,198.155 127.802,196.822 126.5,194.5 Z"/></g>
<g><path style="opacity:0.031" fill="#fee9c3" d="M 596.5,194.5 C 595.198,196.822 593.198,198.155 590.5,198.5C 592.147,196.674 594.147,195.34 596.5,194.5 Z"/></g>
<g><path style="opacity:0.031" fill="#ffe8cb" d="M 147.5,195.5 C 147.5,197.5 146.5,198.5 144.5,198.5C 145.167,197.167 146.167,196.167 147.5,195.5 Z"/></g>
<g><path style="opacity:0.553" fill="#fdd792" d="M 530.5,195.5 C 531.906,195.973 532.573,196.973 532.5,198.5C 531.094,198.027 530.427,197.027 530.5,195.5 Z"/></g>
<g><path style="opacity:0.031" fill="#fee7bd" d="M 574.5,192.5 C 575.82,194.463 577.154,196.463 578.5,198.5C 575.708,197.608 574.375,195.608 574.5,192.5 Z"/></g>
<g><path style="opacity:0.29" fill="#fde1ac" d="M 590.5,198.5 C 589.828,199.267 588.995,199.934 588,200.5C 587.601,200.272 587.435,199.938 587.5,199.5C 588.209,198.596 589.209,198.263 590.5,198.5 Z"/></g>
<g><path style="opacity:0.031" fill="#fee3b9" d="M 132.5,198.5 C 133.791,198.263 134.791,198.596 135.5,199.5C 135.565,199.938 135.399,200.272 135,200.5C 134.005,199.934 133.172,199.267 132.5,198.5 Z"/></g>
<g><path style="opacity:0.816" fill="#fbca7b" d="M 546.5,221.5 C 548.873,223.579 550.206,226.246 550.5,229.5C 548.659,227.151 547.326,224.485 546.5,221.5 Z"/></g>
<g><path style="opacity:0.553" fill="#fcdd9c" d="M 173.5,226.5 C 173.293,229.241 172.293,231.574 170.5,233.5C 170.707,230.759 171.707,228.426 173.5,226.5 Z"/></g>
<g><path style="opacity:0.831" fill="#facf69" d="M 170.5,234.5 C 169.925,237.912 168.592,240.912 166.5,243.5C 167.059,240.057 168.393,237.057 170.5,234.5 Z"/></g>
<g><path style="opacity:0.141" fill="#fee9c1" d="M 555.5,240.5 C 556.674,241.514 557.34,242.847 557.5,244.5C 555.896,243.713 555.229,242.38 555.5,240.5 Z"/></g>
<g><path style="opacity:0.918" fill="#fbc26a" d="M 560.5,255.5 C 562.097,257.848 563.097,260.514 563.5,263.5C 561.345,261.383 560.345,258.716 560.5,255.5 Z"/></g>
<g><path style="opacity:0.639" fill="#fad684" d="M 159.5,263.5 C 159.419,268.477 158.419,273.143 156.5,277.5C 156.754,272.556 157.754,267.889 159.5,263.5 Z"/></g>
<g><path style="opacity:1" fill="#fac74b" d="M 156.5,279.5 C 156.26,282.579 156.593,285.579 157.5,288.5C 155.535,292.375 154.202,296.375 153.5,300.5C 153.787,296.209 153.787,292.042 153.5,288C 154.868,285.196 155.868,282.362 156.5,279.5 Z"/></g>
<g><path style="opacity:0.522" fill="#f7ba48" d="M 567.5,285.5 C 569.916,296.053 570.916,306.887 570.5,318C 570.691,327.053 570.024,335.886 568.5,344.5C 570.051,324.786 569.718,305.119 567.5,285.5 Z"/></g>
<g><path style="opacity:0.29" fill="#fce7ae" d="M 49.5,308.5 C 68.9957,307.338 88.6624,307.171 108.5,308C 110.324,308.66 111.657,309.827 112.5,311.5C 110.745,310.928 109.078,310.094 107.5,309C 88.1695,308.5 68.8362,308.333 49.5,308.5 Z"/></g>
<g><path style="opacity:1" fill="#f69a1c" d="M 203.5,308.5 C 209.924,307.414 214.591,309.747 217.5,315.5C 217.918,336.431 221.585,356.764 228.5,376.5C 227.97,383.542 224.303,386.709 217.5,386C 214.452,385.394 211.952,383.894 210,381.5C 200.561,359.426 196.894,336.426 199,312.5C 200.25,310.807 201.75,309.473 203.5,308.5 Z"/></g>
<g><path style="opacity:1" fill="#fac020" d="M 49.5,308.5 C 68.8362,308.333 88.1695,308.5 107.5,309C 109.078,310.094 110.745,310.928 112.5,311.5C 113.338,311.842 113.672,312.508 113.5,313.5C 113.833,315.5 114.167,317.5 114.5,319.5C 113.259,323.742 110.592,326.742 106.5,328.5C 88.338,329.662 70.0046,329.829 51.5,329C 50.2625,328.768 49.2625,328.268 48.5,327.5C 46.3674,325.909 44.7007,323.909 43.5,321.5C 43.5,319.167 43.5,316.833 43.5,314.5C 44.4013,313.71 45.0679,312.71 45.5,311.5C 46.2623,309.738 47.5956,308.738 49.5,308.5 Z"/></g>
<g><path style="opacity:0.553" fill="#fde7af" d="M 614.5,308.5 C 613.167,310.5 611.5,312.167 609.5,313.5C 610.167,310.833 611.833,309.167 614.5,308.5 Z"/></g>
<g><path style="opacity:1" fill="#fac019" d="M 675.5,309.5 C 675.833,310.5 676.5,311.167 677.5,311.5C 679.71,315.316 680.044,319.316 678.5,323.5C 677.5,324.5 676.5,325.5 675.5,326.5C 675.5,327.167 675.167,327.5 674.5,327.5C 655.167,327.5 635.833,327.5 616.5,327.5C 612.133,326.467 609.467,323.8 608.5,319.5C 608.833,317.5 609.167,315.5 609.5,313.5C 611.5,312.167 613.167,310.5 614.5,308.5C 633.996,307.338 653.662,307.171 673.5,308C 674.416,308.278 675.082,308.778 675.5,309.5 Z"/></g>
<g><path style="opacity:0.031" fill="#fde0ae" d="M 675.5,309.5 C 676.833,309.5 677.5,310.167 677.5,311.5C 676.5,311.167 675.833,310.5 675.5,309.5 Z"/></g>
<g><path style="opacity:0.141" fill="#fde9c1" d="M 45.5,311.5 C 45.0679,312.71 44.4013,313.71 43.5,314.5C 43.2852,312.821 43.9519,311.821 45.5,311.5 Z"/></g>
<g><path style="opacity:0.29" fill="#fee5bc" d="M 113.5,313.5 C 115.461,315.32 115.794,317.32 114.5,319.5C 114.167,317.5 113.833,315.5 113.5,313.5 Z"/></g>
<g><path style="opacity:0.075" fill="#fee7c8" d="M 609.5,313.5 C 609.167,315.5 608.833,317.5 608.5,319.5C 607.206,317.32 607.539,315.32 609.5,313.5 Z"/></g>
<g><path style="opacity:0.639" fill="#fde3a1" d="M 677.5,311.5 C 678.75,311.577 679.583,312.244 680,313.5C 680.667,316.5 680.667,319.5 680,322.5C 679.617,323.056 679.117,323.389 678.5,323.5C 680.044,319.316 679.71,315.316 677.5,311.5 Z"/></g>
<g><path style="opacity:0.141" fill="#fee7ba" d="M 608.5,319.5 C 609.467,323.8 612.133,326.467 616.5,327.5C 616.5,327.833 616.5,328.167 616.5,328.5C 611.027,328.026 608.36,325.026 608.5,319.5 Z"/></g>
<g><path style="opacity:0.031" fill="#fee6c3" d="M 43.5,321.5 C 44.7007,323.909 46.3674,325.909 48.5,327.5C 44.9909,327.192 43.3243,325.192 43.5,321.5 Z"/></g>
<g><path style="opacity:0.031" fill="#fee7bc" d="M 114.5,319.5 C 114.64,325.026 111.973,328.026 106.5,328.5C 110.592,326.742 113.259,323.742 114.5,319.5 Z"/></g>
<g><path style="opacity:0.212" fill="#fee8bd" d="M 678.5,323.5 C 678.5,324.5 678.5,325.5 678.5,326.5C 677.5,326.5 676.5,326.5 675.5,326.5C 676.5,325.5 677.5,324.5 678.5,323.5 Z"/></g>
<g><path style="opacity:0.714" fill="#fdd986" d="M 616.5,327.5 C 635.833,327.5 655.167,327.5 674.5,327.5C 674.631,328.239 674.464,328.906 674,329.5C 654.809,329.804 635.642,329.471 616.5,328.5C 616.5,328.167 616.5,327.833 616.5,327.5 Z"/></g>
<g><path style="opacity:0.365" fill="#facc71" d="M 157.5,363.5 C 159.416,367.163 160.416,371.163 160.5,375.5C 158.755,371.8 157.755,367.8 157.5,363.5 Z"/></g>
<g><path style="opacity:0.365" fill="#f9c365" d="M 565.5,363.5 C 564.901,369.58 563.234,375.247 560.5,380.5C 561.594,374.561 563.261,368.894 565.5,363.5 Z"/></g>
<g><path style="opacity:0.22" fill="#fdd999" d="M 163.5,385.5 C 164.931,386.78 165.598,388.447 165.5,390.5C 164.069,389.22 163.402,387.553 163.5,385.5 Z"/></g>
<g><path style="opacity:1" fill="#f59a1c" d="M 230.5,395.5 C 233.518,395.335 236.518,395.502 239.5,396C 242.029,398.859 244.529,401.692 247,404.5C 250.795,417.192 246.295,422.525 233.5,420.5C 230.225,417.13 227.391,413.463 225,409.5C 224.262,405.739 224.595,402.072 226,398.5C 227.409,397.219 228.909,396.219 230.5,395.5 Z"/></g>
<g><path style="opacity:0.365" fill="#fbd279" d="M 171.5,405.5 C 173.873,407.579 175.206,410.246 175.5,413.5C 173.659,411.151 172.326,408.485 171.5,405.5 Z"/></g>
<g><path style="opacity:0.365" fill="#facb74" d="M 551.5,405.5 C 550.674,408.485 549.341,411.151 547.5,413.5C 547.794,410.246 549.127,407.579 551.5,405.5 Z"/></g>
<g><path style="opacity:1" fill="#fbc953" d="M 179.5,422.5 C 181.117,423.038 182.784,423.371 184.5,423.5C 184.5,425.167 184.5,426.833 184.5,428.5C 185.5,428.5 186.5,428.5 187.5,428.5C 187.287,431.451 187.954,434.118 189.5,436.5C 185.811,432.135 182.478,427.469 179.5,422.5 Z"/></g>
<g><path style="opacity:0.776" fill="#fedc8f" d="M 143.5,437.5 C 140.167,437.5 136.833,437.5 133.5,437.5C 136.736,435.41 140.069,435.41 143.5,437.5 Z"/></g>
<g><path style="opacity:1" fill="#fabf12" d="M 133.5,437.5 C 136.833,437.5 140.167,437.5 143.5,437.5C 145.196,439.525 146.863,441.525 148.5,443.5C 148.492,446.545 148.159,449.545 147.5,452.5C 146.833,453.833 145.833,454.833 144.5,455.5C 142.801,455.34 141.134,455.506 139.5,456C 140.598,456.77 140.598,457.603 139.5,458.5C 137.326,458.75 135.659,459.75 134.5,461.5C 131.76,463.56 128.76,465.226 125.5,466.5C 123.973,466.427 122.973,467.094 122.5,468.5C 119.669,469.079 117.336,470.412 115.5,472.5C 115.158,473.338 114.492,473.672 113.5,473.5C 110.669,474.079 108.336,475.412 106.5,477.5C 106.158,478.338 105.492,478.672 104.5,478.5C 102.973,478.427 101.973,479.094 101.5,480.5C 101.158,481.338 100.492,481.672 99.5,481.5C 96.1667,481.5 92.8333,481.5 89.5,481.5C 88.5,479.833 87.1667,478.5 85.5,477.5C 85.1208,472.93 85.7875,468.596 87.5,464.5C 89.0269,464.573 90.0269,463.906 90.5,462.5C 90.8417,461.662 91.5084,461.328 92.5,461.5C 94.8525,460.66 96.8525,459.326 98.5,457.5C 98.8333,457.5 99.1667,457.5 99.5,457.5C 101.027,457.573 102.027,456.906 102.5,455.5C 105.331,454.921 107.664,453.588 109.5,451.5C 109.842,450.662 110.508,450.328 111.5,450.5C 112.71,450.068 113.71,449.401 114.5,448.5C 114.842,447.662 115.508,447.328 116.5,447.5C 118.027,447.573 119.027,446.906 119.5,445.5C 121.181,443.992 123.181,442.992 125.5,442.5C 128.511,441.331 131.178,439.664 133.5,437.5 Z"/></g>
<g><path style="opacity:1" fill="#fabf13" d="M 589.5,437.5 C 591.336,439.588 593.669,440.921 596.5,441.5C 599.032,442.596 601.365,443.929 603.5,445.5C 603.973,446.906 604.973,447.573 606.5,447.5C 606.973,448.906 607.973,449.573 609.5,449.5C 611.066,448.939 612.399,449.606 613.5,451.5C 615.336,453.588 617.669,454.921 620.5,455.5C 622.062,455.733 623.395,456.4 624.5,457.5C 625.659,459.25 627.326,460.25 629.5,460.5C 632.4,461.443 634.733,463.11 636.5,465.5C 637.43,469.4 637.763,473.4 637.5,477.5C 635.833,478.5 634.5,479.833 633.5,481.5C 629.434,481.693 625.434,481.36 621.5,480.5C 621.027,479.094 620.027,478.427 618.5,478.5C 617.508,478.672 616.842,478.338 616.5,477.5C 614.664,475.412 612.331,474.079 609.5,473.5C 608.508,473.672 607.842,473.338 607.5,472.5C 605.664,470.412 603.331,469.079 600.5,468.5C 599.341,466.75 597.674,465.75 595.5,465.5C 595.027,464.094 594.027,463.427 592.5,463.5C 590.847,463.34 589.514,462.674 588.5,461.5C 587.341,459.75 585.674,458.75 583.5,458.5C 583.027,457.094 582.027,456.427 580.5,456.5C 580.167,456.5 579.833,456.5 579.5,456.5C 579.167,455.5 578.5,454.833 577.5,454.5C 576.833,454.5 576.5,454.167 576.5,453.5C 576.068,452.29 575.401,451.29 574.5,450.5C 574.227,440.107 579.227,435.774 589.5,437.5 Z"/></g>
<g><path style="opacity:0.075" fill="#fee8c1" d="M 589.5,437.5 C 592.331,438.079 594.664,439.412 596.5,441.5C 593.669,440.921 591.336,439.588 589.5,437.5 Z"/></g>
<g><path style="opacity:0.212" fill="#fee8b9" d="M 133.5,437.5 C 131.178,439.664 128.511,441.331 125.5,442.5C 127.484,439.836 130.151,438.169 133.5,437.5 Z"/></g>
<g><path style="opacity:0.031" fill="#fee5b9" d="M 143.5,437.5 C 146.621,438.288 148.288,440.288 148.5,443.5C 146.863,441.525 145.196,439.525 143.5,437.5 Z"/></g>
<g><path style="opacity:0.451" fill="#ffe6af" d="M 589.5,437.5 C 579.227,435.774 574.227,440.107 574.5,450.5C 572.566,440.945 576.4,435.945 586,435.5C 587.302,436.085 588.469,436.751 589.5,437.5 Z"/></g>
<g><path style="opacity:0.553" fill="#fee9b6" d="M 119.5,445.5 C 119.027,446.906 118.027,447.573 116.5,447.5C 116.973,446.094 117.973,445.427 119.5,445.5 Z"/></g>
<g><path style="opacity:0.212" fill="#fef0cd" d="M 148.5,443.5 C 149.152,444.449 149.486,445.615 149.5,447C 149.607,449.221 148.94,451.054 147.5,452.5C 148.159,449.545 148.492,446.545 148.5,443.5 Z"/></g>
<g><path style="opacity:0.141" fill="#ffedc8" d="M 603.5,445.5 C 605.027,445.427 606.027,446.094 606.5,447.5C 604.973,447.573 603.973,446.906 603.5,445.5 Z"/></g>
<g><path style="opacity:0.031" fill="#fee6c5" d="M 114.5,448.5 C 113.71,449.401 112.71,450.068 111.5,450.5C 111.821,448.952 112.821,448.285 114.5,448.5 Z"/></g>
<g><path style="opacity:0.353" fill="#fde9b4" d="M 606.5,447.5 C 608.027,447.427 609.027,448.094 609.5,449.5C 607.973,449.573 606.973,448.906 606.5,447.5 Z"/></g>
<g><path style="opacity:0.212" fill="#feebc4" d="M 574.5,450.5 C 575.401,451.29 576.068,452.29 576.5,453.5C 574.952,453.179 574.285,452.179 574.5,450.5 Z"/></g>
<g><path style="opacity:0.212" fill="#feebc7" d="M 109.5,451.5 C 107.664,453.588 105.331,454.921 102.5,455.5C 104.34,453.331 106.674,451.998 109.5,451.5 Z"/></g>
<g><path style="opacity:0.141" fill="#fee9c2" d="M 613.5,451.5 C 616.326,451.998 618.66,453.331 620.5,455.5C 617.669,454.921 615.336,453.588 613.5,451.5 Z"/></g>
<g><path style="opacity:1" fill="#ffd67b" d="M 144.5,455.5 C 144.607,457.379 144.107,457.712 143,456.5C 142.184,457.823 141.017,458.489 139.5,458.5C 140.598,457.603 140.598,456.77 139.5,456C 141.134,455.506 142.801,455.34 144.5,455.5 Z"/></g>
<g><path style="opacity:0.639" fill="#fde8a9" d="M 102.5,455.5 C 102.027,456.906 101.027,457.573 99.5,457.5C 99.9731,456.094 100.973,455.427 102.5,455.5 Z"/></g>
<g><path style="opacity:0.031" fill="#fee3bf" d="M 577.5,454.5 C 578.5,454.833 579.167,455.5 579.5,456.5C 579.565,456.938 579.399,457.272 579,457.5C 577.961,456.756 577.461,455.756 577.5,454.5 Z"/></g>
<g><path style="opacity:0.451" fill="#fde4a4" d="M 580.5,456.5 C 582.027,456.427 583.027,457.094 583.5,458.5C 581.973,458.573 580.973,457.906 580.5,456.5 Z"/></g>
<g><path style="opacity:0.031" fill="#fee5c4" d="M 624.5,457.5 C 626.674,457.75 628.341,458.75 629.5,460.5C 627.326,460.25 625.659,459.25 624.5,457.5 Z"/></g>
<g><path style="opacity:0.353" fill="#fee8bc" d="M 98.5,457.5 C 96.8525,459.326 94.8525,460.66 92.5,461.5C 93.8021,459.178 95.8021,457.845 98.5,457.5 Z"/></g>
<g><path style="opacity:0.075" fill="#feeecd" d="M 139.5,458.5 C 138.341,460.25 136.674,461.25 134.5,461.5C 135.659,459.75 137.326,458.75 139.5,458.5 Z"/></g>
<g><path style="opacity:0.212" fill="#feedc6" d="M 583.5,458.5 C 585.674,458.75 587.341,459.75 588.5,461.5C 586.326,461.25 584.659,460.25 583.5,458.5 Z"/></g>
<g><path style="opacity:0.639" fill="#fde8a9" d="M 90.5,462.5 C 90.0269,463.906 89.0269,464.573 87.5,464.5C 87.9731,463.094 88.9731,462.427 90.5,462.5 Z"/></g>
<g><path style="opacity:0.353" fill="#feeab7" d="M 592.5,463.5 C 594.027,463.427 595.027,464.094 595.5,465.5C 593.973,465.573 592.973,464.906 592.5,463.5 Z"/></g>
<g><path style="opacity:0.451" fill="#fde8b9" d="M 595.5,465.5 C 597.674,465.75 599.341,466.75 600.5,468.5C 598.326,468.25 596.659,467.25 595.5,465.5 Z"/></g>
<g><path style="opacity:0.075" fill="#feeecc" d="M 125.5,466.5 C 125.027,467.906 124.027,468.573 122.5,468.5C 122.973,467.094 123.973,466.427 125.5,466.5 Z"/></g>
<g><path style="opacity:0.031" fill="#fee5ba" d="M 122.5,468.5 C 120.664,470.588 118.331,471.921 115.5,472.5C 117.336,470.412 119.669,469.079 122.5,468.5 Z"/></g>
<g><path style="opacity:0.031" fill="#fee5b5" d="M 600.5,468.5 C 603.331,469.079 605.664,470.412 607.5,472.5C 604.669,471.921 602.336,470.588 600.5,468.5 Z"/></g>
<g><path style="opacity:0.714" fill="#fee09a" d="M 87.5,464.5 C 85.7875,468.596 85.1208,472.93 85.5,477.5C 83.2286,474.496 82.8952,471.163 84.5,467.5C 84.8684,465.825 85.8684,464.825 87.5,464.5 Z"/></g>
<g><path style="opacity:0.714" fill="#fee19d" d="M 636.5,465.5 C 637.586,465.62 638.253,466.287 638.5,467.5C 640.105,471.163 639.771,474.496 637.5,477.5C 637.763,473.4 637.43,469.4 636.5,465.5 Z"/></g>
<g><path style="opacity:0.353" fill="#fde5b4" d="M 609.5,473.5 C 612.331,474.079 614.664,475.412 616.5,477.5C 613.674,477.002 611.34,475.669 609.5,473.5 Z"/></g>
<g><path style="opacity:0.075" fill="#fee6bd" d="M 113.5,473.5 C 111.66,475.669 109.326,477.002 106.5,477.5C 108.336,475.412 110.669,474.079 113.5,473.5 Z"/></g>
<g><path style="opacity:0.075" fill="#fee9c2" d="M 85.5,477.5 C 87.1667,478.5 88.5,479.833 89.5,481.5C 88.8826,481.611 88.3826,481.944 88,482.5C 86.9055,480.922 86.0722,479.255 85.5,477.5 Z"/></g>
<g><path style="opacity:0.075" fill="#feecc3" d="M 104.5,478.5 C 104.027,479.906 103.027,480.573 101.5,480.5C 101.973,479.094 102.973,478.427 104.5,478.5 Z"/></g>
<g><path style="opacity:0.353" fill="#fdeab6" d="M 618.5,478.5 C 620.027,478.427 621.027,479.094 621.5,480.5C 619.973,480.573 618.973,479.906 618.5,478.5 Z"/></g>
<g><path style="opacity:0.075" fill="#feedce" d="M 637.5,477.5 C 637.167,479.833 635.833,481.167 633.5,481.5C 634.5,479.833 635.833,478.5 637.5,477.5 Z"/></g>
<g><path style="opacity:0.031" fill="#fdd99c" d="M 494.5,479.5 C 493.833,480.833 492.833,481.833 491.5,482.5C 491.5,480.5 492.5,479.5 494.5,479.5 Z"/></g>
<g><path style="opacity:0.714" fill="#fde099" d="M 89.5,481.5 C 92.8333,481.5 96.1667,481.5 99.5,481.5C 98.469,482.249 97.3024,482.915 96,483.5C 93.7593,483.661 91.5926,482.994 89.5,481.5 Z"/></g>
<g><path style="opacity:0.714" fill="#fde099" d="M 621.5,480.5 C 625.434,481.36 629.434,481.693 633.5,481.5C 632.359,482.339 631.026,483.006 629.5,483.5C 627.224,482.787 624.891,482.287 622.5,482C 621.944,481.617 621.611,481.117 621.5,480.5 Z"/></g>
<g><path style="opacity:0.031" fill="#fedfbe" d="M 238.5,487.5 C 237.833,488.167 237.833,488.167 238.5,487.5 Z"/></g>
<g><path style="opacity:0.29" fill="#fddca0" d="M 249.5,494.5 C 251.027,494.427 252.027,495.094 252.5,496.5C 250.973,496.573 249.973,495.906 249.5,494.5 Z"/></g>
<g><path style="opacity:0.714" fill="#fede93" d="M 263.5,502.5 C 265.027,502.427 266.027,503.094 266.5,504.5C 264.973,504.573 263.973,503.906 263.5,502.5 Z"/></g>
<g><path style="opacity:0.11" fill="#fbcf7f" d="M 445.5,509.5 C 443.574,511.293 441.241,512.293 438.5,512.5C 440.426,510.707 442.759,509.707 445.5,509.5 Z"/></g>
<g><path style="opacity:0.365" fill="#f8c462" d="M 432.5,514.5 C 427.915,517.14 422.915,518.806 417.5,519.5C 422.216,517.261 427.216,515.595 432.5,514.5 Z"/></g>
<g><path style="opacity:0.553" fill="#fbd685" d="M 298.5,517.5 C 301.152,517.41 303.485,518.076 305.5,519.5C 302.848,519.59 300.515,518.924 298.5,517.5 Z"/></g>
<g><path style="opacity:0.522" fill="#f9c466" d="M 412.5,520.5 C 410.461,521.578 408.294,522.578 406,523.5C 405.667,523.167 405.333,522.833 405,522.5C 397.055,524.993 388.888,526.326 380.5,526.5C 391.006,524.302 401.673,522.302 412.5,520.5 Z"/></g>
<g><path style="opacity:0.22" fill="#f8ce6e" d="M 323.5,523.5 C 328.049,523.624 332.382,524.291 336.5,525.5C 331.9,525.72 327.567,525.054 323.5,523.5 Z"/></g>
<g><path style="opacity:0.031" fill="#fee5b9" d="M 485.5,531.5 C 488.64,530.359 491.973,530.192 495.5,531C 498.493,532.159 500.16,534.325 500.5,537.5C 497.038,532.081 492.038,530.081 485.5,531.5 Z"/></g>
<g><path style="opacity:0.212" fill="#fee7ba" d="M 237.5,531.5 C 230.962,530.081 225.962,532.081 222.5,537.5C 222.84,534.325 224.507,532.159 227.5,531C 231.027,530.192 234.36,530.359 237.5,531.5 Z"/></g>
<g><path style="opacity:1" fill="#fabf11" d="M 237.5,531.5 C 238.492,531.328 239.158,531.662 239.5,532.5C 243.036,537.603 243.37,542.936 240.5,548.5C 240.267,550.062 239.6,551.395 238.5,552.5C 237.094,552.973 236.427,553.973 236.5,555.5C 236.672,556.492 236.338,557.158 235.5,557.5C 234.5,557.5 233.5,557.5 232.5,557.5C 232.595,560.692 231.929,563.692 230.5,566.5C 228.215,563.788 227.548,564.121 228.5,567.5C 227.675,568.386 226.675,568.719 225.5,568.5C 225.5,570.5 225.5,572.5 225.5,574.5C 224.326,575.514 223.66,576.847 223.5,578.5C 223.672,579.492 223.338,580.158 222.5,580.5C 221.094,580.973 220.427,581.973 220.5,583.5C 219.599,584.29 218.932,585.29 218.5,586.5C 218.34,588.153 217.674,589.486 216.5,590.5C 215.167,591.167 214.167,592.167 213.5,593.5C 213.5,594.167 213.167,594.5 212.5,594.5C 209.167,594.5 205.833,594.5 202.5,594.5C 201.5,592.833 200.167,591.5 198.5,590.5C 197.596,589.791 197.263,588.791 197.5,587.5C 197.833,584.833 198.167,582.167 198.5,579.5C 198.328,578.508 198.662,577.842 199.5,577.5C 201.25,576.341 202.25,574.674 202.5,572.5C 204.727,571.599 205.727,569.933 205.5,567.5C 205.66,565.847 206.326,564.514 207.5,563.5C 208.906,563.027 209.573,562.027 209.5,560.5C 209.66,558.847 210.326,557.514 211.5,556.5C 213.316,554.882 214.649,552.882 215.5,550.5C 215.5,550.167 215.5,549.833 215.5,549.5C 216.906,549.027 217.573,548.027 217.5,546.5C 219.56,543.76 221.226,540.76 222.5,537.5C 225.962,532.081 230.962,530.081 237.5,531.5 Z"/></g>
<g><path style="opacity:1" fill="#fabf11" d="M 485.5,531.5 C 492.038,530.081 497.038,532.081 500.5,537.5C 500.75,539.674 501.75,541.341 503.5,542.5C 503.229,544.38 503.896,545.713 505.5,546.5C 505.66,548.153 506.326,549.486 507.5,550.5C 508.68,553.54 510.347,556.206 512.5,558.5C 513.338,558.842 513.672,559.508 513.5,560.5C 513.427,562.027 514.094,563.027 515.5,563.5C 516.674,564.514 517.34,565.847 517.5,567.5C 517.273,569.933 518.273,571.599 520.5,572.5C 520.75,574.674 521.75,576.341 523.5,577.5C 524.338,577.842 524.672,578.508 524.5,579.5C 524.5,583.167 524.5,586.833 524.5,590.5C 522.833,591.5 521.5,592.833 520.5,594.5C 516.731,594.756 513.064,594.423 509.5,593.5C 508.136,591.809 506.803,590.142 505.5,588.5C 504.761,588.631 504.094,588.464 503.5,588C 504.598,587.23 504.598,586.397 503.5,585.5C 503.25,583.326 502.25,581.659 500.5,580.5C 499.662,580.158 499.328,579.492 499.5,578.5C 499.573,576.973 498.906,575.973 497.5,575.5C 497.5,575.167 497.5,574.833 497.5,574.5C 497.068,573.29 496.401,572.29 495.5,571.5C 494.11,570.101 493.11,568.434 492.5,566.5C 492.25,564.326 491.25,562.659 489.5,561.5C 488.326,560.486 487.66,559.153 487.5,557.5C 486.921,554.669 485.588,552.336 483.5,550.5C 483.25,548.326 482.25,546.659 480.5,545.5C 479.451,539.786 481.117,535.12 485.5,531.5 Z"/></g>
<g><path style="opacity:0.075" fill="#feebce" d="M 500.5,537.5 C 502.25,538.659 503.25,540.326 503.5,542.5C 501.75,541.341 500.75,539.674 500.5,537.5 Z"/></g>
<g><path style="opacity:0.141" fill="#fee8c5" d="M 222.5,537.5 C 221.226,540.76 219.56,543.76 217.5,546.5C 217.928,542.756 219.595,539.756 222.5,537.5 Z"/></g>
<g><path style="opacity:0.353" fill="#fde8ba" d="M 239.5,532.5 C 242.552,534.44 243.885,537.273 243.5,541C 243.385,543.042 243.051,545.042 242.5,547C 242.164,548.03 241.497,548.53 240.5,548.5C 243.37,542.936 243.036,537.603 239.5,532.5 Z"/></g>
<g><path style="opacity:0.353" fill="#fde9bb" d="M 485.5,531.5 C 481.117,535.12 479.451,539.786 480.5,545.5C 479.362,542.696 479.195,539.696 480,536.5C 481.076,533.921 482.909,532.254 485.5,531.5 Z"/></g>
<g><path style="opacity:0.353" fill="#fdeabd" d="M 503.5,542.5 C 504.674,543.514 505.34,544.847 505.5,546.5C 503.896,545.713 503.229,544.38 503.5,542.5 Z"/></g>
<g><path style="opacity:0.353" fill="#fde5b2" d="M 480.5,545.5 C 482.25,546.659 483.25,548.326 483.5,550.5C 481.75,549.341 480.75,547.674 480.5,545.5 Z"/></g>
<g><path style="opacity:0.212" fill="#ffebc4" d="M 217.5,546.5 C 217.573,548.027 216.906,549.027 215.5,549.5C 215.427,547.973 216.094,546.973 217.5,546.5 Z"/></g>
<g><path style="opacity:0.212" fill="#fee8b8" d="M 505.5,546.5 C 507.104,547.287 507.771,548.62 507.5,550.5C 506.326,549.486 505.66,548.153 505.5,546.5 Z"/></g>
<g><path style="opacity:0.353" fill="#feeac3" d="M 215.5,550.5 C 214.649,552.882 213.316,554.882 211.5,556.5C 211.87,553.733 213.204,551.733 215.5,550.5 Z"/></g>
<g><path style="opacity:0.031" fill="#fee6c4" d="M 238.5,552.5 C 238.938,552.435 239.272,552.601 239.5,553C 238.922,554.417 237.922,555.25 236.5,555.5C 236.427,553.973 237.094,552.973 238.5,552.5 Z"/></g>
<g><path style="opacity:0.031" fill="#fee7bb" d="M 507.5,550.5 C 510.138,552.418 511.805,555.085 512.5,558.5C 510.347,556.206 508.68,553.54 507.5,550.5 Z"/></g>
<g><path style="opacity:0.031" fill="#fee6bf" d="M 483.5,550.5 C 485.588,552.336 486.921,554.669 487.5,557.5C 484.888,555.948 483.555,553.614 483.5,550.5 Z"/></g>
<g><path style="opacity:1" fill="#ffd781" d="M 235.5,557.5 C 234.389,560.856 232.723,563.856 230.5,566.5C 231.929,563.692 232.595,560.692 232.5,557.5C 233.5,557.5 234.5,557.5 235.5,557.5 Z"/></g>
<g><path style="opacity:0.212" fill="#fef0cd" d="M 209.5,560.5 C 209.573,562.027 208.906,563.027 207.5,563.5C 207.427,561.973 208.094,560.973 209.5,560.5 Z"/></g>
<g><path style="opacity:0.212" fill="#fef0d0" d="M 513.5,560.5 C 514.906,560.973 515.573,561.973 515.5,563.5C 514.094,563.027 513.427,562.027 513.5,560.5 Z"/></g>
<g><path style="opacity:0.031" fill="#fee4c3" d="M 489.5,561.5 C 491.25,562.659 492.25,564.326 492.5,566.5C 490.75,565.341 489.75,563.674 489.5,561.5 Z"/></g>
<g><path style="opacity:0.804" fill="#fddc87" d="M 366.5,566.5 C 363.167,566.5 359.833,566.5 356.5,566.5C 359.833,563.833 363.167,563.833 366.5,566.5 Z"/></g>
<g><path style="opacity:0.031" fill="#fde1a4" d="M 366.5,566.5 C 368.5,566.5 369.5,567.5 369.5,569.5C 368.167,568.833 367.167,567.833 366.5,566.5 Z"/></g>
<g><path style="opacity:0.639" fill="#fcdd8e" d="M 356.5,566.5 C 355.833,567.833 354.833,568.833 353.5,569.5C 353.5,567.5 354.5,566.5 356.5,566.5 Z"/></g>
<g><path style="opacity:1" fill="#ffcf64" d="M 230.5,566.5 C 229.331,569.511 227.664,572.178 225.5,574.5C 225.5,572.5 225.5,570.5 225.5,568.5C 226.675,568.719 227.675,568.386 228.5,567.5C 227.548,564.121 228.215,563.788 230.5,566.5 Z"/></g>
<g><path style="opacity:0.929" fill="#fedc88" d="M 205.5,567.5 C 205.727,569.933 204.727,571.599 202.5,572.5C 202.511,570.983 203.177,569.816 204.5,569C 203.288,567.893 203.621,567.393 205.5,567.5 Z"/></g>
<g><path style="opacity:0.031" fill="#fde4b7" d="M 369.5,569.5 C 371.048,569.821 371.715,570.821 371.5,572.5C 370.599,571.71 369.932,570.71 369.5,569.5 Z"/></g>
<g><path style="opacity:0.929" fill="#fedb87" d="M 517.5,567.5 C 519.379,567.393 519.712,567.893 518.5,569C 519.823,569.816 520.489,570.983 520.5,572.5C 518.273,571.599 517.273,569.933 517.5,567.5 Z"/></g>
<g><path style="opacity:1" fill="#fbc226" d="M 356.5,566.5 C 359.833,566.5 363.167,566.5 366.5,566.5C 367.167,567.833 368.167,568.833 369.5,569.5C 369.932,570.71 370.599,571.71 371.5,572.5C 372.653,591.427 372.82,610.427 372,629.5C 370.618,632.305 368.784,634.639 366.5,636.5C 363.167,636.5 359.833,636.5 356.5,636.5C 356.5,636.167 356.5,635.833 356.5,635.5C 356.027,634.094 355.027,633.427 353.5,633.5C 352.496,632.317 351.662,630.984 351,629.5C 350.333,610.833 350.333,592.167 351,573.5C 351.2,571.68 352.034,570.347 353.5,569.5C 354.833,568.833 355.833,567.833 356.5,566.5 Z"/></g>
<g><path style="opacity:0.031" fill="#fee6c5" d="M 495.5,571.5 C 496.401,572.29 497.068,573.29 497.5,574.5C 495.952,574.179 495.285,573.179 495.5,571.5 Z"/></g>
<g><path style="opacity:0.212" fill="#feedc6" d="M 202.5,572.5 C 202.25,574.674 201.25,576.341 199.5,577.5C 199.75,575.326 200.75,573.659 202.5,572.5 Z"/></g>
<g><path style="opacity:0.212" fill="#feecc3" d="M 520.5,572.5 C 522.25,573.659 523.25,575.326 523.5,577.5C 521.75,576.341 520.75,574.674 520.5,572.5 Z"/></g>
<g><path style="opacity:0.075" fill="#feebc9" d="M 225.5,574.5 C 225.771,576.38 225.104,577.713 223.5,578.5C 223.66,576.847 224.326,575.514 225.5,574.5 Z"/></g>
<g><path style="opacity:0.075" fill="#feecd1" d="M 497.5,575.5 C 498.906,575.973 499.573,576.973 499.5,578.5C 497.65,577.758 496.984,576.758 497.5,575.5 Z"/></g>
<g><path style="opacity:0.075" fill="#feefd4" d="M 222.5,580.5 C 222.573,582.027 221.906,583.027 220.5,583.5C 220.427,581.973 221.094,580.973 222.5,580.5 Z"/></g>
<g><path style="opacity:0.831" fill="#fddb85" d="M 198.5,579.5 C 198.167,582.167 197.833,584.833 197.5,587.5C 196.254,584.707 196.587,582.04 198.5,579.5 Z"/></g>
<g><path style="opacity:0.212" fill="#feecc8" d="M 500.5,580.5 C 502.25,581.659 503.25,583.326 503.5,585.5C 501.75,584.341 500.75,582.674 500.5,580.5 Z"/></g>
<g><path style="opacity:0.929" fill="#fdd772" d="M 524.5,579.5 C 527.167,583.167 527.167,586.833 524.5,590.5C 524.5,586.833 524.5,583.167 524.5,579.5 Z"/></g>
<g><path style="opacity:0.031" fill="#fee6c3" d="M 220.5,583.5 C 220.715,585.179 220.048,586.179 218.5,586.5C 218.932,585.29 219.599,584.29 220.5,583.5 Z"/></g>
<g><path style="opacity:0.075" fill="#fee9c0" d="M 505.5,588.5 C 506.803,590.142 508.136,591.809 509.5,593.5C 506.703,593.033 505.369,591.367 505.5,588.5 Z"/></g>
<g><path style="opacity:0.141" fill="#feedc8" d="M 198.5,590.5 C 200.167,591.5 201.5,592.833 202.5,594.5C 200.167,594.167 198.833,592.833 198.5,590.5 Z"/></g>
<g><path style="opacity:0.141" fill="#feebc2" d="M 216.5,590.5 C 216.5,592.5 215.5,593.5 213.5,593.5C 214.167,592.167 215.167,591.167 216.5,590.5 Z"/></g>
<g><path style="opacity:0.075" fill="#feeed0" d="M 524.5,590.5 C 524.167,592.833 522.833,594.167 520.5,594.5C 521.5,592.833 522.833,591.5 524.5,590.5 Z"/></g>
<g><path style="opacity:0.714" fill="#fee2a1" d="M 509.5,593.5 C 513.064,594.423 516.731,594.756 520.5,594.5C 519.469,595.249 518.302,595.915 517,596.5C 514.06,596.154 511.56,595.154 509.5,593.5 Z"/></g>
<g><path style="opacity:0.031" fill="#fee2b3" d="M 202.5,594.5 C 205.833,594.5 209.167,594.5 212.5,594.5C 210.316,595.266 207.982,595.933 205.5,596.5C 204.261,596.058 203.261,595.391 202.5,594.5 Z"/></g>
<g><path style="opacity:0.353" fill="#fde7b2" d="M 353.5,633.5 C 355.027,633.427 356.027,634.094 356.5,635.5C 354.973,635.573 353.973,634.906 353.5,633.5 Z"/></g>
</svg>
